<mxfile host="app.diagrams.net" modified="2024-05-13T16:51:36.049Z" agent="Mozilla/5.0 (Windows NT 10.0; Win64; x64) AppleWebKit/537.36 (KHTML, like Gecko) Chrome/124.0.0.0 Safari/537.36 Edg/124.0.0.0" etag="JJT3aYnxVLWopDSeboOI" version="24.3.0" type="github">
  <diagram name="第 1 页" id="VfLE5_9_y4Ggnf3BD1qX">
    <mxGraphModel dx="978" dy="643" grid="1" gridSize="10" guides="1" tooltips="1" connect="1" arrows="1" fold="1" page="1" pageScale="1" pageWidth="827" pageHeight="1169" math="0" shadow="0">
      <root>
        <mxCell id="0" />
        <mxCell id="1" parent="0" />
        <mxCell id="Q7oySCktOlI4An6xobhd-24" value="" style="whiteSpace=wrap;html=1;aspect=fixed;" parent="1" vertex="1">
          <mxGeometry x="500.75" y="260" width="120" height="120" as="geometry" />
        </mxCell>
        <mxCell id="qrvlQesGI0q9o3KWwNDa-1" value="" style="rounded=0;whiteSpace=wrap;html=1;" parent="1" vertex="1">
          <mxGeometry x="80.75" y="420" width="540" height="240" as="geometry" />
        </mxCell>
        <mxCell id="qrvlQesGI0q9o3KWwNDa-11" value="" style="group" parent="1" vertex="1" connectable="0">
          <mxGeometry x="640" y="585" width="127.75" height="110" as="geometry" />
        </mxCell>
        <mxCell id="OuYwRzyxVTaI1I2WvI3m-3" value="" style="group" parent="qrvlQesGI0q9o3KWwNDa-11" vertex="1" connectable="0">
          <mxGeometry x="-120" y="-295" width="80" height="80" as="geometry" />
        </mxCell>
        <mxCell id="OuYwRzyxVTaI1I2WvI3m-4" value="" style="verticalLabelPosition=bottom;verticalAlign=top;html=1;shape=mxgraph.infographic.shadedCube;isoAngle=15;fillColor=#10739E;strokeColor=none;fontStyle=1;fontColor=#10739E;fontSize=12;shadow=0;" parent="OuYwRzyxVTaI1I2WvI3m-3" vertex="1">
          <mxGeometry y="15.999999999999995" width="13.333333333333334" height="63.99999999999998" as="geometry" />
        </mxCell>
        <mxCell id="OuYwRzyxVTaI1I2WvI3m-5" value="" style="verticalLabelPosition=bottom;verticalAlign=top;html=1;shape=mxgraph.infographic.shadedCube;isoAngle=15;fillColor=#F2931E;strokeColor=none;fontStyle=1;fontColor=#F2931E;fontSize=12;shadow=0;" parent="OuYwRzyxVTaI1I2WvI3m-3" vertex="1">
          <mxGeometry x="16.666666666666668" width="13.333333333333334" height="80" as="geometry" />
        </mxCell>
        <mxCell id="OuYwRzyxVTaI1I2WvI3m-6" value="" style="verticalLabelPosition=bottom;verticalAlign=top;html=1;shape=mxgraph.infographic.shadedCube;isoAngle=15;fillColor=#AE4132;strokeColor=none;fontStyle=1;fontColor=#AE4132;fontSize=12;shadow=0;" parent="OuYwRzyxVTaI1I2WvI3m-3" vertex="1">
          <mxGeometry x="33.34141414141414" y="15.533980582524272" width="13.333333333333334" height="64.46601941747574" as="geometry" />
        </mxCell>
        <mxCell id="OuYwRzyxVTaI1I2WvI3m-7" value="" style="verticalLabelPosition=bottom;verticalAlign=top;html=1;shape=mxgraph.infographic.shadedCube;isoAngle=15;fillColor=#23445D;strokeColor=none;fontStyle=1;fontColor=#23445D;fontSize=12;shadow=0;" parent="OuYwRzyxVTaI1I2WvI3m-3" vertex="1">
          <mxGeometry x="50" y="40" width="13.333333333333334" height="40" as="geometry" />
        </mxCell>
        <mxCell id="OuYwRzyxVTaI1I2WvI3m-8" value="" style="verticalLabelPosition=bottom;verticalAlign=top;html=1;shape=mxgraph.infographic.shadedCube;isoAngle=15;fillColor=#12AAB5;strokeColor=none;fontStyle=1;fontColor=#12AAB5;fontSize=12;shadow=0;" parent="OuYwRzyxVTaI1I2WvI3m-3" vertex="1">
          <mxGeometry x="66.66666666666667" y="23.999999999999996" width="13.333333333333334" height="56" as="geometry" />
        </mxCell>
        <mxCell id="Q7oySCktOlI4An6xobhd-3" value="ReadShuffle()" style="rounded=1;whiteSpace=wrap;html=1;fontSize=16;dashed=1;dashPattern=8 8;" parent="1" vertex="1">
          <mxGeometry x="220" y="430" width="120" height="40" as="geometry" />
        </mxCell>
        <mxCell id="Q7oySCktOlI4An6xobhd-4" value="ReadCache()" style="rounded=1;whiteSpace=wrap;html=1;fontSize=16;dashed=1;dashPattern=8 8;" parent="1" vertex="1">
          <mxGeometry x="90.75" y="430" width="120" height="40" as="geometry" />
        </mxCell>
        <mxCell id="Q7oySCktOlI4An6xobhd-5" value="TensorCache()" style="rounded=1;whiteSpace=wrap;html=1;fontSize=16;dashed=1;dashPattern=8 8;" parent="1" vertex="1">
          <mxGeometry x="490.75" y="430" width="120" height="40" as="geometry" />
        </mxCell>
        <mxCell id="Q7oySCktOlI4An6xobhd-6" value="Put()" style="rounded=1;whiteSpace=wrap;html=1;fontSize=16;dashed=1;dashPattern=8 8;" parent="1" vertex="1">
          <mxGeometry x="350.75" y="430" width="60" height="40" as="geometry" />
        </mxCell>
        <mxCell id="Q7oySCktOlI4An6xobhd-7" value="Get()" style="rounded=1;whiteSpace=wrap;html=1;fontSize=16;dashed=1;dashPattern=8 8;" parent="1" vertex="1">
          <mxGeometry x="420.75" y="430" width="60" height="40" as="geometry" />
        </mxCell>
        <mxCell id="Q7oySCktOlI4An6xobhd-22" value="" style="whiteSpace=wrap;html=1;aspect=fixed;" parent="1" vertex="1">
          <mxGeometry x="218" y="260" width="120" height="120" as="geometry" />
        </mxCell>
        <mxCell id="Q7oySCktOlI4An6xobhd-23" value="" style="whiteSpace=wrap;html=1;aspect=fixed;" parent="1" vertex="1">
          <mxGeometry x="360" y="260" width="120" height="120" as="geometry" />
        </mxCell>
        <mxCell id="Q7oySCktOlI4An6xobhd-27" value="" style="group" parent="1" vertex="1" connectable="0">
          <mxGeometry x="80.75" y="260" width="120" height="120" as="geometry" />
        </mxCell>
        <mxCell id="Q7oySCktOlI4An6xobhd-17" value="" style="whiteSpace=wrap;html=1;aspect=fixed;" parent="Q7oySCktOlI4An6xobhd-27" vertex="1">
          <mxGeometry width="120" height="120" as="geometry" />
        </mxCell>
        <mxCell id="Q7oySCktOlI4An6xobhd-25" value="" style="shape=image;verticalLabelPosition=bottom;labelBackgroundColor=default;verticalAlign=top;aspect=fixed;imageAspect=0;image=data:image/png,iVBORw0KGgoAAAANSUhEUgAAAgAAAAIACAMAAADDpiTIAAADAFBMVEUAAAArVYA0aJIzZ5EyZpIzZ5EzZ5EzZ5EzZ5EzZ5EzZ5A0aI9AYJ8uaJc1ZZEyZ5AzZpE0Z5EyaJEzZ5EzZ5EzZ5EzZ5A0aJIyZ5Ixa5Q1ZY40Z5AzZ5AzZ5EzZ5EzZ5AzaJAAAP9AgIAyaZE0aJAzaJEzZ5EzZ5EzZ5EzZ5IzZpEuXYstaZY3ZJI2ZZQ1ZZI0aJE1aY83ZJAAgIAzZpkyaJAzZ5IzZ5EzZ5EzZ5IyZpIzZpEzZpkzZpMyaJAyaJAyZpE0Z5EzZ5EzZ5IzZ5EzZ5EzZ5E0Z5AyaJE0Z5AzZ5I0Z5EzZ5IzZ5AyaJEzZpIzZo8yZpA0Z5EzZpEyZpE0Z5I2a5QxZ5I0ZZMzZ5EzZ5EzZ5EzaJIyaJAyaJEzZ5EzZ5EzZ5E0Z5I0Z5EzZpAyZ5EzZpIzZpEzZpk1ZZIzZ5EzZ5EzZ5EzZ5EzZ5E0aJAyaZA1ao0zZ5E0Z5IzZo8zZpI0Z5EzZ5EzZ5EzZ5EzZ5EzZ5AzZ5E2ZJM0aJIzZ5EzZ5EzZ5EzaJEzaJEyZ5EyZpE0Z5EzZ5EzZ5IzZ5IyaJIxZ5M3bZIzZpEzZ5EzZ5E1ZY8kbZIyaZI0aJEzZ5FVVaozZpAzZpEyaZIzaJEzZ5EzZ5EzZo8xYZIzZ5E0Z5AzZ5AzZ5E7YokzZ5EzZ5EzZ5AwZ5EwaI8zZ5AyZpEyZpI0aJEzZ5EzZ5EzZ5EzZ5E0aZAyZ5EzZ5EyZpEzZpAzZ5EzZ5EvaI4zZ5E5cY4zZ5EyZpAyZ5IyZpExZ5I1ZZA0aZAzZ5EzZ5EyZpExYpM0Z5ArapU0aJEzZ5EzaJI0Z5E0Z5EzZ5I0Z5A0Z5IzZ5EyaJExZ5Eyao8xZ5A0aJA0Z5EzZpIyZpEyaJIyao4zZ5EzaJEzZpEzaJEzZpIzZ5EyZpEzZpI0aJEzZ5E0aJIzZpEzZ5E0Z5AzZ5EzZpMzZpEzZowwYI8yZ5A0aJEzZpEzZ5IzZ5E5Y44zZ5ExZ48zZ5I0aJMzaJE0aJIyaJM1apUzZpEyZpIyaJEzZ5EzZ5Flhyp5AAAA/3RSTlMABjZyseb++uS6gUAIFjpcfZ7A4f32vYVSHyteiLPwxJEBBDNspdzstXxBCxEcJkQsIhcCD0y/9PvNk1oFKEdlhKPD4vXu18u7raGUd2pRIzJ6weWiWRMqSW+SpKq2xcy+rqiZc2ZLHgo/zvn8wnlTLh3oxhlGstDt38ifhiFi3d656pthjrzVuH5bNA7g44swBz178wM30TiC941QFZxF6doNq+emJSCDiXWAx9nr8idIqX9VsM8blwnSmE2sLzVOaNOnGooMXdiMT7eaj1TvykMpPnFKbp1gJMmgeJZp+GvbWJAxZPFjbS3WFBBXdl+vtBKVOdQ7h2dCGDxwVnQKNMIbAABMwklEQVR42u1deYBP1Rf/jpiRCDUTZTBfI+vIMJaxZRuSZMlSikZki+xbm1GJijBlKBEhsmSQ7GVJI1GjlJQyUqQoUrKk3/zMjJnv+5y33fveve+N5n3+Yu5755537v2+d++553yOz+fBgwcPHjx48ODBgwcPHjx48ODBgwcPHjx48OCBFUH5rslfIDidESEFry10XWG3dfYgAkWuL1qs+A03hrKOfQBhN5UoebPb6nuwjqBbSoWXLsA/8IAyZSNK3eJ3+1E8cKJcZPlbKzC/8E1RsVLlKlXdfqY8hqhqt0VWqX4ZVSIjI6Nr1IyKYb2zVu0SdeoKG/scxNar38D7IMhGw0a3N27StFnzOI0RCG5RsOUdre5sfVd4m7tLta0e2S5Ifb+/fYd7YsUPfg46durcxW0byULVe+8r1bXQ/Q90697qwfjL6NEqAw/17BUR3uHh3kX75OvbT2r/tfp3Lf7IAJ7RGNj80eKDBg+plS1haINOwyQOfnavwytH/rfWBCNGPlx/1OgxDM9e97HHSz/x5N21h0QJVuGpsU0TrA9J2LgHH+rW7eln5A9+NoY9W4X5i5SbUa79+OcmWLJb3YnPP/vCi5MmC1BiaKknXnJu6IRhytRpbg+fPSS+/Mrz022boUCdiFLRSZaViJlRYqbbI2kdEztcrYvCmFdfu2eWOEPEDX999hx+LRrWfsOBT7ZUhOafe/UtBxKrRxSUYIuETr25/CWREfPcHj4heLON6AWRVMx/cYH9974uFr7VexGTGovfHufqqIUVrBDfrFW3Tr2WFGrTpmvvy1jaZll4RNNKy99Zwe0zTr5rpdvDyoikVQ/E8T4dNwo2HVvDRI8qDw10YdCDOw5fff+75TvPnTbUcD/rHzFjzcMR760NYxcd2jPa7bFlwLpCHZ2ydcL62br7gw2NNzo99M/U2dR1ZI0gHmNdRky7zW1a38E4DULf/8Dt8TVB/wUyHWRqxD76yhaNrXLQ3QsdVaNj6UJbq9mxW8P224pvZ3lhBb8X6fYY6yOm5OOOmv0KVnw4fgfqUTTBud7Dmn00e4QY+6VUeftB899P8HuN3B5obSTt/NiN4c/Cxl1zs+MqYj7hevkPGJMwuuzubnt61Q8PD+/Va/WoBz+uyHpvgQVdZzQUa8X5tT/daHa8GLu+ptuDrYb/s4mcY5aa8GZ8fPzjrbKw9/K/t7/UwsYcCHv6lc+/WLfvyzdZLl44/IGPHi711aShG7QeJmZEvrb7P1odb6TOx18f+EaSLWu+eKfJKjq5stwDE370j2cbpXnfrl5SvsF9MxZ10XFyR0WvGrvsYI8KXMc1PBg4etO261MYHysqcs13eyaMI1u22L3PtS0i1579Pvsw2fAxCu7MTa6hpxaYG37W8O8P7WN3ZsTsuL7zoF5Pv5MmcvBjH33tdivnCikzDt+afZBQ4PXPWaePPRT+pFMZo4ep84UjajAgsZCJvzd44hOHIi1+K/07rh//+rUifLk39ipZy5oOWRgxu3KnSnd9bv1Egh/9Djxo8EADSuSO70B/47XfD72OCFiyzPm86xszbfh1KizZkptemey45UeDA/RxfdxW7/KqdY/BmnXA7t5DBfaVUmVQfivvghU//uS2mWyg8Is36D9aa1svNQHYp+9sr7uggQztnmrQi2mdn43QSoN5nXO5DpPe1z05eKm/m4oFfaSr2N6jEpdK63Z+zXjKc+zTdm4aSBgaPRGiN8GnJrqmVV89x9+x9fLfuYt/ft9wkZyBG4/Pd804WUis1v7ztqXKt8nE4aNrNlfP98EOS+vhvhF6voGZv7j0cF/peMymfOnMPslXrn/4aIPhTzjq1rt/cnTt3i/UX/Boy1RtzSr+es/q+sVenHGCS+qcJTpHRnFH3HhI/7vaq7+Pxztq9sVd62hvDm48UM5xm5yM/O33u0rP1Bl2DaTG92zCEes2tLj2swYvcXJzmoV+qzVVeWm886p0OXVa9dMo890G+4I58M2p1259nPkMgf6CH7y/1C1sdov+Q1vE82ccNvq6eC01Vux3aUHSb3BT5c9u4J98L1cBCgw6ZnH0s1G3TuW/WN5ZVc5q3l4h2tHnvU0rwjr2fjfD1hqO3JQdA1BvEue9SVFRUdVq1KixI8r6Z2NO/ZB0uzg2av8t5g/6u2ZCWvLtDhq7vVagZZ1ofkFVV0ZGfv5ydDUxq8aYv3clXLZiV7a36ZnIrcfPNb1hdEJFpSc7tMXChHqlny10aOsM3lP+Re+LSBMt8MZIs1nY97TWjSFjhRiRBfs0XnfHzjO7Wot8sGrnl09+nX/4D4GpHLvihzuu7dbr7a4NLvxy0c4yosarDKc9NUoWyn+j+Vgkx7+1rHMkx+S8/kFzoQxYsae6iQlqawZcL3PI2/2PRsDvbhaXb5GR+9f3eCzN1ADB8ybe8MCT2766RcZ2stGhbnxJSqG/Nr30Mqs/YTCXl1Ifz6w3Tgo701PrruKCo1O08VeyquNZx83mXtKQbZ1+4LdDwZvWX1ol7jgh8b5eFiNWQ1u2PsCUnxN0iSX7kQXjOhh+gzprRas87YDja5La/9ZymvEti/c/bWuNPKbHj+On2d7VB5VcnWxvSCo824BhXXDmR/urwSzE3vmyQT/VWmncsnaHuYL2UEN9HNfTiNTC377QWiHWiGv2+m+Lres9qb7VXTribIn2pn3d9rSgGZCefkdn/be6/12Nk5gbV8od/xOqb1xwZYPX/y1TmwuzRQaadxr/lAWtEw+Mtt93Dsbt+sssafuzKeJ6a6zvWd2scRoyr73M8S+8nPZXt63uxRuOfit09K/gpYOn+N4ERd4VnhxaMGKacZ8pH4n6Dlx+4PO6b4HbflVfXmafxAnQifZWcYbepTueXCHa7AE89sSLrBQqJ5ZIIPK5jPhtxtEOP4n58mXinZJ6vcx/SH112H3Sxv8a2lfBe3Wu7PtnmhSzBzCwWRtzr5kv6u1kaRrEHfzHqOuGxQRGNj+o90OLWaK+OO0rSeM/l55FVdB5Fxf5XlpUN2Bc/ZGGhw8x58Ws/HRxdqzR0Wf0HeJ6Cl1/UqeX3upkojQ5sYIjqAP4Ru2d8YYOdg9GODD9zrG6B2F/xcvvv2Mbgy9BwxIC85OHNdDp5Xa1uaXMgJibSC8LtZP0v3I6J3+0tovAMFxVII7tMkgL3SeSl+haHVfUL+qt1qwq4idAZdLHmGitq2q+74jVFShzm6a6/R9zTIMBz+o7K2u9JbCjY+O1O9lRT30p74moKbaQT82A67SuausgiVoWQmtr6VH4OQuszdYx6zl98qJtaQI7GnVRs48UtevpGcE5xIkk9zO4lMZFG95w0upZeEFL28X17AvmQ/Iy3VPISJHfxBVbNfsIUh8ONe8rdALQ3cZrGtcsEulvY8R7Wn7IkZIX/9pD01jPPxhVWmA3wRGaG5+Y71VX/ioyLSMfWc5207D7SNMwbfFoqfG78w9ygxvoMvbm07Ge/22R69FHtBc9n6ou3C0uPjOGOHXf1LD7UXHOT2YkaziikjY5r8cVBHfSyxpfI5I2K6yrZh/nVBc+J2wClCcaDFFf8q4LBg/dqtajaiUXFMlBi7E6R2OThJImdtIMlVG/A44KGv+L5OWuEX3WxA1zF1LrUWSvG4oo8LzO2mvHIyJ7eUcr9cqvWoMPMAoo4EBxFPuA+oolrJqLxG71qmudoJAsG9CLjpzcyr7sANIOa3SR1I1eVtACt64aH+CeuoDK9+p/zg1LP6b2Ae94xw1FKCZoe+yCHhDaS1MNeoig3fSqP0QEipKpu1l1wTlWpUViVnuVHhdbuqGIGqn/atrRP1VoL6M1/I/9VAEbd9sf/69QYifVBeNdsbJ6gVPzV/tSBeEN7TC5yvYlK9BR/RPwzUkgFyXbiKO7Mm9x9TJMlf7T35mzX4KeKkVT4t3QQwc6gbIPCz2gmn5B3cNKGpX8tN0JMBvlqX54i9xwu6UnqNxc5f6wL1Ug0rTfvYeFzoCwueoe9qWRi3TDiRhfABja9Aj1LkW5wg8aoo6Q6eWGHkYorlkT9qjQGTBrlbqH3uSacfYSpduiNEpJ4z/NrKxIfKfS8ztX9DDEXs1AgfL2BSugFfpBM/f/Z2sCIA3MArmPw4rlKi/3KkePfxkxTzNAd6nQPgaoAwBrkePHeXaqkb4MogauJM1D0twwbBhVw3ezKwsRU4Sc17KpWK953S2qDmaQYxk7r4D8IKk1aS0X74pdH6ZaJrrtANZFCS1HzKf25SowT02E9hpe0dx6Xt1KeLOG0K7auGJUdRDg9/aFykInjbjhmNX25SrwpooPZUMCXqGfvWMG9PF+TVrbCSwKx47gv6mWm91QgxUTNI7OC98jtIvlqnV+SaKD1fHfAF6FUMpP/Z4rFi1OtTzhbH0YXszUiOOLOmtfrgI96YfGjzFxwVaZxXeCmPykdaQr9oxTZUB3sy9UKt7R2A7eLLac4e9U/lZsD7c4AcqCFJIJFbPdFXOeo0p2dkUNHozT8Mf/LdSBPnAkER+DdBzjrB0KfgNeq72ktYErxmxBzyJ2iKLkkIjmGjk0Y4X2MIZWUSR5nHrhisZYBjJIHFA5d2Iv2lAle9qXKR8FND7CYjeDM0l4QBQmRe+yMv7+CkoRLUgPRV2xZEcaBlHFFTW4oZFHlySOSCQDfxLxmMpfwcoE+AtE/EhaBaa+cmAb0aKh2OW0PGhk0kYJjV8KJqlatbHZCtXW6yCBFC39xxUzJlCyjGvsy3QIP6gJplamiuzgEQyRDELhOy1MgASlgI2k0fEk0EwcJ1qMcDAT3S7OqgmMVwlNYSH+voPQ+Ab/+E8DAUuxcbEr2Tdj6LnWs25oYRXxahY/oSeD96BsdOK8yT8BYA8QSpwZu1wxYROi4kpnS1XbRXfVIYY/v32pOQjGo5qboTGUPywEVnnDsS3ITpFXy0ijTlWxhyry0Utl5DMiGSRImAzSIXMXlpkDB4HE17iVSzFRoN+xSGc4QARC5cXwzRDoESTxn+ghGcw7AdDRd5uRbIcQTFNBxW6kHXmEoio7fylO+nTcI2G63iDeCdBaefev2FZVDveeCZ4nGr5sX6TjmKXK1hMZVfkqSMZ8jWd5JwCwnUZgmzvnLzS+2dU8YKuouJIa+qQ4BhGMQMMfSGnO8X8K7ibpYCLXrswoQJxAH1x1K4BMtFRtBrcIWwZ8BHIXQ9sdnBMAdpGxGNVSy5VcoBJEw1vdUEIA3lcdze4XJfpOEFsV2gpyToA9ypuXY9saN+wWSg48n7q6fAAKLKW29ov6mD2CcoGWJMSM4pwADlk+xbYn3DAbzXG7yw0lhCBWxbA3QlBU+xQUi44APqqAFHD1YrpzjHD6dRaQfWwtVzYiYjBPFSPW1r7QDMSh1Hho5PME4WEfhjRFumG0FWQJeNgNJURhuCpWXBChKKYjIl2ERiKpAS4pb30G21w5gl1PFHQnIFEU7qf2PiMmshmPnDEmRI9sWhtNlbfWwbZRbpiMpNm5E44gDMGqOp//CpGLJRQwq+Mw1wTYqLz1LmiKSXXBYs3JGlYs347z6KgiOBKSZIF+xkHQVpln/BvCTh+5DqLdMNhU1O+EKzlJInErNXk1EbEtn4DIxtD2Os8EuBduRfL5nRwKCUN71O9/buggFp9Rm4vItD8AEtFfs4dnAuAXCbkP3eCEa4nq+d2nA7SNFTS4IUlAmalrQOLt0NbJx4FCyjvT8PtbxwVrvYvqbXFBBeEYRY3+j/3DDSRxvx7aVvNMADjvx5+fP9UFYxFm1I9cUEE8VPU/mtoWuQTk4Wotv48DQA33BzTVcMFUBfH8xO9cORiZGEPDhO3HOGPyBh4H8pwH+6FCfAS0uXEStAnVe9UFFWSA8i34OtiViO6yddD2EMcEqAZ37oc2N3jBcXfjUkiyeATTypMb7NYcRu6EItDWjWMCXIA7kYnMhWz8WZgO4L/RvsjcgZmU7cwu625TkHYG2m71seMQ3In1p1zICeyO2v1lX2JuQWNi+BibVQUOgrTJBm3GgMzlUDxiklgTWg/lUbv/yhfgMhbS+LCv7Ml7wmAC8ESFdlfe2ByaUlww0zeo3dWSEMyCJtT0y22Jw2XlRWj7nmMCADEAngW6cBJAotnW2ZeYexBH/YG32xKHv3Lcsd/vYwdUOMLXSm0uhYSAlKhxpzyBLERQ2z9oRxqyROCPlecw6GvljW9DkwvkwGSlJLIar/uYRZkb5tqRhgxa+aCNhykMPC1IyjHVeRshu0qM4+WJ5WITNf7jNoR1AEmroO1dHzsKK2/E6szFuRQSgY6omysRiRIRQvm9StoQhvulotD2JccEgM8sHsQ4Xx+AODAG2ZeYu0CZT2NslOA4BZIgsDP9Z/bx/whyLjCe3PnD4N6o3E2OKyAZIZQ+qrF1WVg8oAS0feZjBtwXiydxzlcIx3j2ctPtS8xloARvidYjhNuDIMjuSh/pYwbcNw/bmjttnunoL//J6f7lI42yHy+zLArDwjHjTF1miW0CkGisZKfNcwP2f8i+xFwHSuM5wmrybSiSEGGMGQdjONz3IL6BHc/JJtZxJS9RMurSyBCrBCzDUAym8K2zOAEwdO0Mjz5C8Bvqlkuqw4oFLYNulfsEqbwaYiGt+T5mwH14irjDcePgNjnq6mSFMMGYFDICM63JwXCAodAWysEYDzfWhybHIwJXoGqr7EvMjbiGjEBXa2KWgZAZ0FaRffxxAiDtyL08+ojAblRNbMm1XIOCJF34hLVlYCkQgjnnE61OAPw+tXfaNBjo7FKZIvmgbroFlqRgOa3j0HaT1QmA/HLX8+gjAjipMVLhP4SPSfLrfZakoBvgHLR9aHUCXIImx+sz4ElEyn9yDZgB4qhNKmBBRl1c5+G5eYTVCYCnwfYCVvgxEAMS/ysZAWpQFrf7LcjYjiKGQ2MHHzvgRkxgcnoV/gNq1tu+xNyK6vikVhgwTqMIPFIY72MH3IjLE6cnANkEXL3UYKZohU9qJfmhCUjYgJ/LKj52wI1IP+r0JwDJSXxiS67mLkzCR/2RXwKyADXCxnY+dsCNSA/i9ATAJajPlTIFUpA25ZH4Ca26XcbpVpnYS97RffhlDjF4WYdqFLFmmwBYpsfpcrFIUjzC4d4loOOEP/cPfrnRSdNBmMzNhBqbCAK2QeMU0w71JgCGkjk9AbBW2VVSJFAHoXvDZ+9gH4VveeWTg/sl0FjW8gT4HzRd4NFIAPCg1CQYYFiz4i8cPnLhgxoZWPTqVzuXHowPc1hhPaQ91PkEzxj4fOG8XbyP92M9naY8XcOdL0DTJIfNhq4N3YXRwLPFt02arPUsSfde0yrNWaU1MPp8lI8Xg3k7IYfK+AYpZnkCPAdNK5013DhU7Hmta4IfWTLX+Kw75d8ernoQu1f3WcAXvN0go7M/GRrXWJ4AGLXs8DKMfLnUJbamf9i5CMsj3funa8Gkj//DoqAaQbyTFksqkYN7LqpouBOZRRxODkZmq34Y4pKe/FZb9mp4F/e4UutyXmeOQAwEZyL+AKTTng2NxKXOMwEwOdjvrBXx+wMRwcE9dnLWQhziQkrB+3ws/YBf+boiJwEvQGMCV89w61psS3XUfrgFGRxo6PhaDY4Hyp69l9Ic1T49rii/kgFwxoWRJGqMKPiDq2e49UZsc/ZAvjP0nRPh8G3nhhyPo8BPQiu2m6HjJGtaXgEnXUxXvBuf9BxXz7D6CMHEDGe98VhcJSvCIbbnX9aNOtnB1LaZ1azrmQFOPlwMB+qH3+ojXD3/DbMHE9idrdWFC9s3Lv/l2HM38zyKCoUdq3Zw1sbnPxN8i8DYfnDzFiNDmuI25TsAdzFLeJSyDXSevZ/e4pVaNq3qK+dQ2ds3R9hUNIZvvT0a7/4ZGsPK8fVdSzkBXoSmo86YLwuxGCn3XhN+f5oaic2cUD2V5/hVE1F8HZLK2hHQyFs1EnhgMJbI0YK9C1Etrr2sPk44sJAN/kS//6pb1iy9q1u3jDPgbt0O9lofHl65zcO9e68hZGjf8PWIcRuEaugNHx9g/YkcJjXlGy+AmWJGnOJe+SdEu3S6njz4071657yhq+DSfFwdkszwRCypct7HB4gmIxUbU6UbL4BWnHpf/sIv3ldqUHh4r/qFupaa0U/vKukFRypo+qgKt11gOPWehKv5IsNn4caYRM9+4OMD0MESJ5I9JkM+PMCjdL99+7+Oh4k/8OOm/2oeEyUNt6oRI+7T6HTEk2bxTFjW6UWuHkl13y+hcXqSjw/gRYrFuXVQsu2UeI5V4aqrniyrnU2VtkDLG/OF3MLD76l7TGli/t1Bhh++ktKYwkkovXtwjj+pyIGLk++kmg7xHZO2Qw9VMiwi9nQj9T1yyc7Uc64/BPnGFtjYrKP6tgtwywusvWViJ/aHvPNP+jhxN9yORQ4FlbllAgOxVc2u5vTls/6nqpy92CoJBwuuVWk5KOccs/nXd3+e5VqrVeW7UWlwHxIi8nFiY3VfzAxP38o7AZCzGuOCueMUbMAsiiHoSHe2d3m3RHrreolq0yq9/ux0hnnLyMtohJKWOxhXjnt4uhyHcn/DVqaQCSUwCRy/xEFyP5+A+wy1HNqEvYz5TXRHcIs8rafQ980VuraOjdWOjEQF4wkp0byap09CNoixc3xnwRnYAJEXpNyUgwdqLxvouOVOHVdp2oRzbQ5f0+aF8E3vfxyYrB/SuAx5G4GPSE9XijBO0AwFrxy4rx627ObpkyRRYzwg12YqCxB7dRbbHKwdPU1Xwf5P69zy5jalnYPafxd/pWEpkTBWmtakxt3Fipl//VXbK6EIdCZ7B64Ziid2KSHQWN7HjVbK+8PwleZg0b5FOur9o+vO/1r9lt1SOrNlFvG0pqRJUnoYeddsyvqzznpG8bImOzkextgKeCvxIVkIS/gTBOABrLyfjgraUT/36tOE1InRumFu5qaoEvnrtZKUJhU6s/cb2ofD5RTbw9+xKY6jT+LrnwqNYRaiZ5BmGPeBDuboa70BThgFd/bRfpyozDCQV/GPX7JqwYlD2E12FV7tlbiySDOGP3Xh6RNPbH3x0NiDf/zJPhCDjWo5F2Ov9uDEnB9jdINesEjKxnQVSUojRiV40R67yY7r0YzJSVRG/WDgBRcnLpJAnsHo6WIWJkA7kID1KH12qxuy4xaqV6SJ1yda74Guu9wYUhP/ZoWFxRzByPm3KPvvExM11AIaH5y9n3D0+SZKJb46K3kJMZBGgZHhvqc5VLOHIUStDiEmNzTWeyB/xmgfxb89JEVnUuIqUHqhqTpBoLPyZToQP9XHOfrshWLrQ2NdnsTwHMAehMRlfMqhmj1swY5fMb1huO4DZYQ4EIfGUik698BOFOWX9tC4rAPgU3sMG1/n6BNXD76J0EiO8xmBnlJ0YTSWYjgtIK3JHLPff7q+7zAmYzNeF0dATnDTHux4u6LpWkgOjyK814TIj4MRMRhrz13ERRrbiRoFsgvg+vlvKYbTAtJDsLADbNeJfsxiNomEv21gmFD8wOJcfjgETv0uJzxh6LJUciOp7LmRvct4vLMBtnLUCVAA6/MegDbnGMPx1cbETdBE83GCsoLciEusngydMYSSJtPG3fnwV9ddKLpruXorhYyc/rrsXb6Gj4VvlmOcAcFXkAI7CeLdlrN81gCWC5rBckvo7VqPc+VoldSfekOGzkipw8Gsirz4F9lvJC9oPw4PX1JYAD8ohZDYvFYcytkCkmj3Zbon7jr1w2RHOY/DPx+WoTOG9XAUg8YVL8d3doVhUZ2HLU6A95VCxuAOxrHkEGQnYUyYr3uAPEq5QPUs9ARIWcxgPuhg9hu7wI2n2G8k7C9kr9Te4gQoBlKegrZ/2ZWzB/Lpqch4WzdwIf+9N9CCZdVSQhkF8mAsdLGT+b4y+KxN2Hskm8Cy0NiCNx40G1tBDFIZt5NgN02QiufbWe8buODIlZ1ro8OQIfEKCpQR2oDcyuwTgKT3syewDTwDN0ZhwA5hjmJHNRCDUYV+p/gaO6FOXJnJw4a3KrsxmfyRmONOCTrvhx5mM9/XHVVj36EQGh0SDcZRL5TAKDlkggTDaeE0dms/FGUcCnxbgs54qMtOq0eKSB9jvpHQgGPYfjBHrTCC0ko5pHKPU6tAsvtoaltgMGaXdpagM65b2Cus4NeJIwNvGtwYg3GSNpLrsHxlX2hzahVIXPt/2peIUYYfSND5CehhDvN9GNjPvkEpgDs04nhAvyQXaoOgttDWToLhtEAWRufsS0TXUmEJlFfE8cLMTofnHqeY+yNnD+FGUrmArqi3oc2pVSA5ICtkX+KPKFHCNuBb7IF554Ihi+zlg0kQFFKLJVs6Cr4CiPsga1SHVoGk1l0x+xLJava0eJ0LYA/MC1fMCmnNelsqDvEibD1tY/zROKQqrUOrwDTsdZB9iYQ1vYR9iRTBGP4dwXhbXVSMeceLhV1p4jt+8ThRGUQh45VTq0A8yRIQwRGMjNJ8KdhsQD6m84x3NUfjMxeMqY33PYqtuHbnBFacQMqTdhIMp4Wq0KuION58IJEr8pIROCRbGO9CPk4/a+4q+QLMwVUtSenhRBc4eymBCrK65W0CvZzl7Qskh3UbJJwG4HlwYcaoE4wHOsnaWWscs/HYqkdUwwjgUpqAbX+IN5wWkGptm32BtBTtS/YlUvyJPTASvnaDmxax3aT6AnTHViQc4AZUnjyGOTfm8ZlCgJHSIijqRuEzSghteBB7YKSiQE8waxxJGYw1P4OvmzHWgoFygOlBGKPvUPWe26DTAwIkkkqU34vXeTr+VBhrXeInlrU4GzktQ3ZIukPgBk5DPOdOcYYlIFr4BAjB4ZGRH4azth3bTRi4s5XtJhI1SzM2DLgKmYBRsyT5gJPK2iLaW/kxGQOPx2rbF6gClm7xjWO6CXfsjNvsY5gLfQJ/lXG6NHmsgEEmXLTOFHFFXvC77QukEZQyaiCROKZnmW7CsyDGOBLyBWiMrZZjQXKwSSluIOa8yXChqIGHd5fsC6S/z4YSPmWEsu83ppsw5opxApA9AHHQk5RhC0AmgP7QVoNNRZtADnwhuVxYhASjn8UgBN1XXZjmGJ7pNGC5JX0YrvKLoBdogHl1UjNEg0DCX7CQSUebwE9ABxEiIwx/NULwOXbxPMs9I+EWtjUA8fMQN8nztsffl5SsFHgnNsrJrSXAtKZ3RYjEKmi+ThK0XoZdMFGqYD5LSaZ+orGfHtjKSxCtBaivQvKepRMuZwCTJThCpfVBEukEBJmo8Ch2EcXi2McJsIrhDloE4CJ+AUIxY9Qa8NQXDwQdSRGNNFDHIsh5PU8aPitiydeXxW++it+4h7EXkufEVS1aD4NBJC5UC8skW81Ge+jyOREiSYwB2xqdE5jmx7Skw0XgEJYHwZMyGkJgNSUMgMkBr2PjgwxK2sU06LG+fYGXge4RjuQ9dhAf7AaGCDqcM08xdLIAO9mBB5uhyBxoFRAWRva3Mr6eFEOgx15CZOKX7B8Zas8jbHUMMxfpa1gowkgwIGGXv0HI+CPt/AAMW+OraGENyBMnhuMdyyjLiAyn21eWTr6EG4LMbyhAjvrKYrMuWxIf8KwE/XKTHSgjjNm89hNDMoAOLc7STIz4lNjRnNL+XbwhzfQG4nCuganTaSLqq/koKSRhm4mXYjsAvnPEpPLNBpntpOg9hTCCmUcGkjzYZ0xvIKUgiY+EeDssIwhKcZBgCiGLckOEYIfd7UtMp+faklza6MP2TTYlfCFuNtPK4ST9wE9K4Q0WNAHwy7IC5zV75qtVkLwAMXV/cX8kaQKQBBTC26MBsm2/wex6kvVL1rKpgkos0rolSN3aRTpn7DhU5lv7EtMp7YikCUCXaKabDcL3bVYtIpWc9ZPyIryFIvWBTml8e/rOyjFeABgrzZ5mZYgmTkwAFW31RJPrZ+Hb9X6Ty8kqs3AqNttICSTYAXLJxBKQrWsM4lQXc3SL/iwWl4sV0GgM06MTrJNtEnQb/AVKP4LNUzRZ860B4qZbYpsUN6oSJNO2o32Jl3EXyLxNkuoDkPPJV8TMcz4NLm9sfHEPMkrkxJkWrbGDD5WCg3GajkiXDMLrlypEKDJy/iJL9+PEkO+bXI/RPSZRoXgs4xtKXDK8lWKNgB5GEmf6ZrpcEJ76WfYlplNWNXYKD05sJIY0i/TG43tjUswCpAYIyZsnSyd7mASiSS1XKVSbCmBkRYwYoVjS5S/7AnWwD23lN6kBhAwMxqSYhBs2hqSSkpol9tAQXBhkbpWSZr0sYMnKqmKEYnGufdKU70ksaVILGKllGholLQ4kJ33kRLPuZJ9IQPJUKJ5BL5ZmvSygP+uEGKHoJa0uTfkBJCRncrLh5aTerFFNTFqbmkTniXMCZAJpOdCRzp7Gbg1Y7ISNK9gUeI7OmoNjAcWIJY339r/ixUY8gRg95LtIEpDz+YQC35HExSnmfE4XyJvDEibDAKwdxRaAbQkFSJWglYae02S8uLT+lRXILp/Ucxe6BLyMwrMMpDeWZ74MzIfOPhcjFNNphKSb6WA8MaVxMdhacO0m/QtJfH4MyT0TugTMAJxLkEWALDdKFuJQEUF+Jzx4vUai/tvJobDxThDPd1/QvS4NnTG+PtgseAl4Ga+BfLIIKCjRfvQsSARBSDp1k71gX6A+aPEKw4xaTA35Wfc6wg7vq4TNgpeAPvrmdXIRQIIQBTH7FgOhUishk5U9ddkj8IOhH6xKws1qkA2j4CXgZfQDLzZJEh6fLhFku3PQvsQMoI9WAkOEAqRsc1IFg2uxZpAufRWJBKHJEqKXgBmA+O9QPOS4Wab5CIH2TWKkYnqwjNSwAEicjyHLEb5bdc9ZGqDEwiuwWfgS0Efjv0tio9GctguSYyfo5AFdtHJTHEPJsW1hA/8Obk+TdEJuO5JjAJJInix8CeijiwASvchGf2ANWHwDS/BZx0qQKrkOLqFxo3t2JUiBXp3SbKTmiW85Nt/lk4DCYHnCsiSDcj8buOPYYV9gJpDoQnJ+U8hiNNf8FbqXEleg9o4hjOwByWFmsLreugjgrwQf6aLEwEApBUufwWdjpPGzDPqT/F33ShIBW0nzIlJelL6A6bZDEDCcieScSAwMxKnGXn/JEGQVLYEpEhBGjoSq6q4CYtFt9LXWNcHRKO1kHLYT1jBRwMwm5LQ0DV+0AYxtFkIPoTqlFRNkYoCpxJj6rkf8NmmSIRC+Vl9XbB4nMBZQCT/QwVTEXmQQrWWhBWrBTKFvDNxaREnTPht1i+BjFNZ1nkJtce3wARJrTINMhKSEawFIYwlrQ9U0WaYjq6JmYqSuAaFfyFI+AMJOTH+1AeACTmt1/Sb5hc/F5jjCGCAOSNGJLitKTSMOZF80xb7EDOCZy3WylA+g7hx8Dt1XAK5552pcQQNN38NmUj5IIJAoApnNfW1kWY54RsQw+qWhI0XmLjYb9BWgx3eJR0fT1BeUweNx3zfkGGCItAmAuYppmJY0LV0SkHd9nRihe/HBXrMv0RT0FZD4mPZ16KMeqr6AULTQ9bcgTghN/Ag9YUiSXxZjIJ7bbhEjlOzLZRSPVYG+AnQ2tLi/rqVqH4glvH0nSUk6kiwgFMgGQggKZZ2n4HpdEEF9KdRdRvloFaaTV0DMRs3LkMM0SeVhoydLhDi1uc3qAIboB9tlUo9UFm3wUuilj32BGVgJQjc4wHKSri7dor11JmdfKkoBZM30lSMRuaSGsGCANzgYvVtFJHmDMStgjRCZhCVQWl4QImwEMafmlpZ8KajLkKy9aYTcLPKaEQz0XxEe6ng5ZsNk9M+EyHwANT9sXyIT7ifm/JvhIhpyTxiIfY9js/hQMMAt0BnhwWOvc8oFzJYT43EkxBoL5GiuQhpl7dMqKEoOesgEoJFApKwQPSUQDnDDLESP1BY5VtsPnVQXIhMrKfrNuZgEgdRb8UVrLD7I24lMABKNS+cuqYkrHpgHiiTOfp3gBZvARSBrIS1DkIjGaPsSGRFSg9hT42SDHFPhBDhLQswXkxlEsoXEA9dgZMEqJ0u4MvQhhNAPU3BFBZqz4Aliz5vVx5BkAsyDxqLkflKyZyKZH+IRBTNuLza2lWIzHK1a9gWqdlJMpRzEYOBtxKC7VJeQCQDbwHFkkz+CzJ+jPunA2GCk8ExJk2EzEn0o4OT+JfydnGEs6yoEbxF7dkmlV+DZhx8c/TTY93W89ZkNPunAFJoD2Cjlp1Qa+2hpX2I4SmQq5SEKodHEoKr4UJwAwIawkPD+zSFeomLyx5+QlpCwIBllF2iOQ2n7Eoc4MG11QXnDCjcnF+BpLmRcLCX3Pol31iWMVFKQBAXDy+CpqhSytRWogH1m2u0oMMrJL8DlnfpPxKI0/e8ctCpTg8aQc+CoY3gnDTuTg57QJ6EiXCvDYvhhs//C7oo6C6lDyQHySfMlEfJIPAyaq2hpQ+4kGa1p1NMsBxgWRCadoIhNBC6cbW/aw0jElDPVbxUgexDKToLrKkWoykIsROibPwZvpF4mSSgCy9KJ2CiIvQOBFEFYxM4CSKHVSBkqG6IVNSmeCWFMt2JZtZ/cRmKwBrZzZgKQLCQSnZAgwWBYUt12jcfrUdx6CRqbgPIFoHcTXxAB7r8bCdVMP3JO+KHPISB/bXlsfD1dPEjtS5uVCusRM5aRoLEJRtO4/dPKVvxCBYiYqZOHlLwPvcWpCYCv+e7YKKP4EtkG3GtP2imUdsCeNCE6+FYqIl3nYVNOxO+bxAlIc4uoh0ki4HhiFoaGxgxLFw88u/ONsyNrBfGllJWgryma00IOCp5/EgWfk7RICAFoBeWBcvJBNYH08KR2+Z508SBhjrbqBuIu24mMEC0Qhi/fjkByH9lXJV/583by2ThJihCSpa1UYGjo19goowIjCZEw41s2Qix5m8hYszAglfrsSuQ0YVR4Di0qjQMgOYOx3/icQ2HwQI9BZ2BQqnhzkeJb5WwUDCAhtUGOhYIQELptX60cwgAsaJldr20vOeedQ2LByc9QMmDRSjc1gjicAEOwCxvFSq9DSf9KGl9TpJHtc86anhTjyI5WpDtH8uYKoeLkAr3X5AUtKG4bQHygiyzHH5NjAN+18obYBHTRvuHK6rk+/vlKxBANBV5HDsUdcgJmA52BFXF/0nAMy/PzgayMaYVsdvRGOU+FWhVkG8GE5y87v4P81LMOv0MjycWEQXYAYaCRjr3Q/VxslPANiCXHHEUtymlBvOmCOCctgU7qlMxVQGoQ/LFW1gylsd41yAEmDTeXDjyGIunIMr4B5CC8XII1MSStMkkqw60ZyP45a2NP6MSyinJOp8d8hJi1bk2fw0D+yhX4DZCxDyBnTr6jlqSEkphceawmLKAO4VoZTunq+LdemVdSTrhp5MvVxOnx9/mRpYFoLWMfQKhvgyyVqKAn8e9ZESIOa4g64enpj8Vo2PlGGulHQpjG1PI5DkxJJ1yuMr4BJDLUd8iKELLAGiGGa8IyJpJXwIg0Us/2CucCdQLTggnUregE8MxnXhI0BlVktAAH6PIt0QJh7MfEmdKBX4RYkNxK3540QiaXmWz3OFHbH49SOjoQCqxCDH4DLmDrJlYLcOAw0WAuvwhCrRPzGL8IsfgYfzi+24qToU5I19gvUrL5bT438CnoQCo79pdgrArEWCQ2kQGUQHmVYwOti9/IMxENM9+zNM4jKAFl/EBoox0CFlochqMTI4jJCzCYaLDjGKcAslKRTBDOhI3GmVwZJ6uzqI+Hht438LkCP3KrkuDgqRKMpQqj4U3qJ1Ubdri8BMzEbCMbV01NV8XD+SaT46vRklhBTTEV1CDnAVIYN/4lGvj5fsIkI9hX2cFx1kW80SsgY4a/1I/8kTov73Np/AkZQBkS4jKR1QIceIeyH51M4Lk91y0BM/GJvoUzCWC3kj9WI8lg97g1/j7fD6AIKSAiJT/gPFVhUhr7zbNINsB97LfKxHb9N3hGukB3+scPyf1/+VxDOChCAi0WyTDWiiiqA0dSz63k1tPst0pFZ10D90hPj6MrwL/JQfidPveA5wFpJ7H1cQ4bMCNCpcSTzPcSV0WuWAJm4B09Wr8MLyClfIuJx5tjHYwEVQN9cSRqfRuzBTgQS/MqfX7WGNQKZLVVjPE++dCr79U0Pb1lEPkbzYt81ucmMCyRHG9HSanAsFbl9Eh6n+1O8ltKkl0hhB3qD1smbg5RM8JNJjH3YetcnQCYIBJKGNBWS7FWZZUWiUx8AcE3410yYpetQjuaI0Ij1YOWN13icxdYJojEbMhZZaepPgK+cizUVMPJTS4fBANitXK6TsSll6FhIN8MwBtbaL87nAOSmxBHS5KN2G0DvJOiUsPPwPVOKAHW5ZYlYCbqaHiDlqnLQvjyk/va+FzGUAxMicbWJewW4EFrDUXOm3E9h2IdHrm1wvmxX/VEVSumP0JPv2g+TEE3joERWCXGoaSrxhqK7DM5fSIr1CRL8UTyEEe543zz76AZDL4NtDqvliEcBu5KbiRvskflWGvA3xqadDH+qJMj89y0BMzEcvpr91W9m/6F1o9rKbMuACMmYxlfLMcsrX7AwmoaqviPp+nfEUso1N9i7sspVPaZ4V6yAlQdj2cj8al/frv03BvddrdqVemt+5f22WEq2gYwKIO4JQpLiAzLxMaTWrpE679xCINySl2OzpzBwM99xvDTp3tcvXJcV/34+jrq9Pwf/rxO2pExhn8eI0eX0jJv7ymspYz/gF6mJ1YckPZqsoN51XyGoFxyuESoWf3Ss48bUJ2MWyopcLghMhnvxNaV0gpK36n9/Zv/gqYRBpJc7Eq83TmB4UE+A8yhb9PdWX+ffEufQxE3MaQ4V3zYUL5lREAvNIWxjjRz9UzS1qfLa/PUF5clxnSWGJIVhuldqoJcey4taf389lQO+dtn+CRgC/QRSpKUj3Dox4m3dGaAr/D4b+m1pMSp08SQrDiib+YLIt6lIV/K4JJH6mZSPyBIjjcwE+8X1tXptmVQ4DL9F2yWVuPWJqbfq/dAiYKq2hWXsHNEzjiS2SQ17q7sZAO1bu7dLYeD+SVsmuNMiTgLaDlf52mEFWN6SPwMWIwvJxJ2MUfKoXAWSieZqHax9v82Tfg4lZSe9TWWp5JdrNZ+kJVpwnp4QvxX4AbogHJVFZdmrHopjAo2JASbzpLD8+GS1gP4Ra6lrxE+AbAAbhx5L38gy1TNrTq4HCaH50PI9RoaC6WyDMnHbTETEKpVekIhaSd47BdLyl7G5oQMFMhV58E5aHG3WuETK+zLVWCj8EwyJFsm5T2uUFyIxgAzz6kp/NXGPpTbPMIVymt91kSzLezntpUJJqH8l7E1yRavqw5CO1tTlaDwbEkHlpawt6Smx37DcE45A0avnlp+8y81Tsyp8VPnqerYx4X9eO1khtEgn65kr2FVnAPiVjJ/PeQeTxhg9O16Kvr/rcAoI7blgmWfNcKdnn/uTHrZeVOrcGI/iA8hkaq1pjOqz47XrempMwUcLxiigenbjM7rYj4/mGx4+8DHbtrTZs20RM27k94lbsRHRE+AM7jZJ1U57VE7a+EtDWM9Zb1cTrkSrnuGlpvW+ii3pesD36qO16e37NF0yeFVi0zOecaSGbBS9AzAfLV5ZCLeJvglO0H9uPPfu/wObWz523a7CzUjlOiZyKhoSo0ZX5X68oXw8PA2X+6s8gWrJ4Rm6z8segJUR/nkUNj3h1BrrVV7gFOyau60eO4Liw9wi5yq14y4S3qGf0NM5C1tXyIiBs8qaIX7kSKtNU79rt8QcEbe08Daa2ClizOgpwMMD0irWEC4fFJ9mxw8+zeKs9aKlarOkyBcPu6hnVbSJaaJX6oy4nHW978dzEe/l/CEkvn4EW1KmjvzGMQQceqgBv+z9KKQsh9tncOmeAC1XVoJ1l3kwPhTcud77QskwHKuIaQqR9IPPCYxQGxtddc6fM+PtVr/v9n5dpidGAYg7MiVD8eZFbSFbtDpBfsCCWrg7+cu0myN2VeF4J/VPZswRQ3sOGE+0xP4yj3oxvh/7FBwP4aUzbYvkALzMmaRlVqQGNq4Yup+PzPbYwZ/xqT/ZXyT5sIE0Avur8qqNSMwrXCzfYEUF/C5dpHm8yKMtV7dbRXTQdvFpH4m2NlGhGGcxg4g6MiHl/ckUzpNYtfcHAnQrQxmMVzp1z2BrQ0tMPtSnFZ/zz8w9eDco/GKHXLXt2dHNVZnVqbIKHloDDXNc80ns7UIPr1S2OhMxhflqxImAPnMNyHN9jcCzdQj9pTp7r3ARdVNMeFZjtHmVVRNjpNHB9NsEP9xJf1pSIQoBpBT2O9F+xJV2IDJCWVI9lbMaFNrGGPiGVWXc0xfKyH/qMc/53g9ltbi9Z1MdngCUJdZEKVVSTs4l30fk4ki+3qXVP8VA6HjZISH+wah6jTb0SYzc8G+qg77mRORdVXdFHPQqFleBKM23iX9f6hxzcKIKiw+/6Qd/5wq9MDyFunpu9VJZu3xC1CWQR4/aqVCJxWp1rZOBFLVEWBJo0zv0qim2kvZHkxPLao7PAFGYvendC4bOHrT+VX3atJBpHxxYeeg+08/XjDb1XfsqPrn7S+L8p6UMgF8hKjlf6R50YB0yxhwnbq79aZ33aFOHSmEV8xqTyaVrHxmbYRixqZZGZxnZv6x593ebfdFRu4reahYxANPr52iirpvpX5TqhNLdWNP7KELutPnUQeMdcqY4BfVvZkv2KaoX4Wq3ehaskm4U+Z4qzXEzu3XL5i+Tevr3h5ZHNJXyCowMBX7IWlivvmWT9xeUfdVyjRZboX6bLi6OhSYFJI8biZVKAjR86d25dXRrB87goYF1vdJwkV8IU2nxexOWXwuDTrMuabB/clqP8rKFurL3sGfzD5RY8uEg6jfTfak1S2vubi/2JJcF/yTTxbuwp7oTPNb4w/erfblTDMtFvKM+tjwjOauEedJTXGjy4CpqKC9mIQ/avi0UERF3N/dJw198Xc5gEa65bMSHLZWfZhzs2nS8V61NRpqJwWTz0uywPE1BdLXRtkR9ZLO+c6c7apL//bJw9fY1fu03cI+WyMFLMqsGsX0yhrLnF7a1xIWeUerSGAa0N/WBY35TicQqosqJlw9KCKxOA07o97Wmi3YHiiAMtGqTgqbZHN0LKTl6eyqczVZiK0VPMaGwM1NUatiji3TIwBarP6pTB/qkwmykJ1J/ZjjOZ8tRJ0CFmPIQr22yauaIXar9AJ+muF1vGk4trAVul5qTUiFS7o8CVsWqi+/5JOKE+R4jnLh+6/lerjgU+ou9KnHwv7Ypje979U9NqyEF94hb7jVuI7xwfQRkn+rfkjp7DiNx5VyDKAAEoaoufCf4krIfEHdgc6rPHb4k7frU+d20U+uCscrZ6Y7iPbQNTd7ZfC3XY1CHy9pLLk7csdK8qIq2cv0YhxATRRXT9fBGk8VO/zc7YbnJUE36PdBKni3THcQ30DXfC/HsN3nDRkSUrSSiuO2yB5/VamYYHogG8NO0HGtei3/D3V+l+le7ILZYVmSwW+rIlk+y8hl1gXSF7KvAeLKvn2dSTD5T1q0UqFt5Y+/ryHpeSJN5CrCyhw2U724aQSHNWVGXZrGkFQRY7T5pDEBBR0c/zR8wfn/bW3ee9jy+gd+MQ0k9V9K07pZ8gLwCtaQXovRC/qzReAXVJ/lXFT8Pn9Y8ipbqESM0bGh6sCYgXNTGF5SK9vocIDcDFF3YqXv2xwZwhREXFP76P1dlnvtw094GmepuPCZuOPKDFFJTonPblz49hAGTTJR1ai+7FrVujHZwQkwXFvjmv3HvjJ1T7fL6NTrrvBzbXr/O3fLNxy5PDGHUjW7m8ouwh5obUNVQZQYhjJPaeqIvXLds4ftFHs2VTWj7P9hi1XXO8kgJccn99O32r19JHsDGABdf46nF6SY+ttCNWhTr9SG2s5DDzR4nkEnYerg2BgHx9+YHNgiJkfofGCLyRtvFWqmYt9jVPuVdWYudw0OmKwyP7Ne4YhmqNbNqI+BGikj/ZycAIPYn4QRVdvoMIoNLC91xCloWMXTqrdPO+OtgAYHzPjMD8sYDpa7yU3ijPoIPqpxzxknJ8Ap9mdhwoZr9N53cZ/Yl86DJBoDrs6A/MJoBjyr/lxlRYAsZGcHHHEu1dj8mnuiEU5OgLlCjZ6yXzeeoKMD/h8EXQeGqfORayToGqaTenN/S6YvP2waY/8xI7uZhKAGa7PlXXRyAkQLtPjKCP0kqQk17cvnBV0HnlUnO47QWa2mf63e31/MCmtjozhM/KrXwnQTDPxZ+94iTk6AM0yPw4CkT67VD5EMXcaZWiIEdB2o4oy4jMJNNRV+Uv3+75dFb3CW4UmGnuqWbG766XrfxDkOjv8sMfsy/1+fGjkQ54n90DBDdfCvxU54VM3LEqZRDTHmii/ngEmfIzrvYWOiuPEDPRFdHJwA40TYOd8u42SCe6QWjTPCbqJJmhYP9jc0/mJ7tMZVu678YgyYHvxfHD3ITEPSvYiuHFtxeZywnaA1YudBk8ODul0dIKDSwVC6KHlGK2o1pqhyAk9/TetIP/t88VGdnoKuX5qfg1B7wDUGr96TDk6AbnbM27dthFlkZHp6q6fsdGEXY6k6v2r6swtvy34LDHtdM1qhT3Y2x/daA/ZViUfDTA2hRNloI6UnOzgBfrRm18Qha97uPo9Bfouxzjl/NbGAatRDp8xTuyOFep27Jp/222pLTghRE9o0+PuNvHHmK3obGyXFwQmA5BBRw599eNViA+0S2+0r+l39SgmsbGYLrJPnCkKU6mDzD/7ahe0Cc30JbXuCd/iPvWtGGOWkKxhjgn/J/Nv0et2ePFRyX2Rk5C81MjAksnqfnV1fuyt/PU72kplVfO5DffD/EG9a4gjFyu4tVesXnXgyjl/qcMK0vw0OTgAMCb1PpOhntrmx91ejmEqz1XwzYM5Zxb0/aFxQpAMjC2lopc0sNkl0cAJgnERvcYJnvX6S4VGdgMbB//PMDNeXEYXHxo00LxpR6gGz12PYqN6M2+GGDk4AdI6+Zl9gFgb8WY3tWZ3ASXU4djy7Y/oMcRY/p3ehf9qXH+p5AVInhNfewNxlknPjn4o9C2KnCenVl/lhncAQta8vgZWotu+v5M44Q86sk6+OXfJhs4Rs98PAMWf/+PP3fxeZbIUaRsN/HQwImYiK8AWF6+DY/a7u/LWwWb1rqfsi053T1F6u/Ew31oq6DEbW+Je3k9eKcxPgWuxYQELC9m0831ensF9D002Fze8bq+Xf+d38Ph6cKB6cHoF/cq6E1BPYsV26+rCe/V0dZ31EaGg704yqspZ2sbzgsQIV8/+ckWVACgs7V0+yBPRrzwdd9/SLufHHnwXNvJzQPV2M7vlXL7hl4GFhev1SNlMiyV1zLioYyQGiLcuJ3fv6SCdqTlhHw/xaeq/Yrztn/55g8Ly9+L2JWpj83JXf+tf49zTHJsBW6NeaH6juTcuq596ffg4StVe4qUu0NqxJq1oZP/ToafY18u/MiRkiRE18J0t2gDEJ27jvH/bewzMcKjZgG1V1xjRk1AH0CgT9vcucKSnkbbu1T19V1IZ4AJviTLsXBfTWcZEoJrz/Sh/XAj0sIfG07sO0bN1m8D8rh0RG9jn80U2M5m9+xM5BZ7vVygC6D7HRsdpRZbDf1Yx31Wt9qX8t9mfNNSjXie0BWbHxM6uhLu3+xAOkBdhsyj8nCqOx3726Fw5YkVDvhlG3fr/s8OwZ5qdZuRYxHwk24NlDky2oMWMBdUydxgtSnZoAxKmlyEqe/vflyd0ww5sVdTX+1nXxouj11fQ3qvMtgqLGa/CLkSqa3DRmVoGJgcpAlEocj3RVIbK5NVM1D9c97atY/Ajr2dLJU5U0gwcIb6ZjdOFYv/cXRcv3jE909aHmo1YsVemM7zaDELjgs89u22Jy3Df0SMQdei4+4pJ3jCACM1M3K1qKuT1O8tCwCXd5zthXMhb87U3WZqHjdtf/bmeVRrA/DJrzTeSqn9/u1MxwZ9kDVXSsbhSm6ylPTI76/sP46x0+M7W8Yqf+yWzXJ7/UMv6mVs3i4z9eyLjkIEyhpkllooC5CcrKq1vdHiSpKPzuLHYjpZXIebdHJ0gaiAdRP1YGK7sgdZuUfhKXcrkcwzfdTGs9XEF+ZV3lLjbZ9PVACneJKXFqjpbYrTL2bZ/bIyQdk7qzTIGb/sK7YrpykYyyoh72YnGnwo3nsVtlGtUM338fvxxMM7bPgAci1XfVMDkmsgTikXvJvkQmbIJegZhkmtuj4wjOlDegZb5jv47Pc/OvZoblxlnswSmmUOQHaq9sauTLI7j58O5UtWValL7bIK61XG/RI/QxdlDBvkQmNIBeZyubcl1cp0T4Fx3ZValewUwXXegzd7xV6MVfzA55yjUQS+hN0k2Yc8xtAuu2AKuWjMK+uR21oqqyX+zvM8pm5F4LxeHrYyic009hGRgLAydlZvmLHny+i12tvwbCSq8JUmSBN0fJHzsz/iGYp9ZT2ZY70vpyPdovq8fqT1AgtWnbDN9STODWAijWnHVBCBKw17KKpjS3LXv1YOj5W7n8NhMjVmVHlAZcCs+gzLM8Aq2jB/aq9D6McdusVxcW74yoM8bc4LFr9xRVEiYEXP4tUB5jsrFdYFZIOeWaZor5Q3sgGLqq/KejzmozJcb+sPv+8n/TMNLAYv8YNoxOdwRYV3mosmmiz4NFBK37YFXRL88V79at28E/z7U53/m+V287ob2kCvje47DhEe6xtAQkUL9e2XSPz4N8NMux90BsqOfMBLgAnR5RNkmt7OnhCroHDI6cJQ7VDUTKPCgXtYnnOTxYhKKQAEbefss7lJYQi7MO8mdL8DyHB4tQpClgaI61Cve8GIfavKds+9Jt2+QJPBswONYNcqZ28E2oTbyybafbtskT+DNgcDx9LevIBNiD2oAj4z63bZMnoKhyPg0amvGOpSVgNACSQ0xy2zZ5AuEBg2Pk2T2OTACsiTYJ2hbzPIcHi1Cw8iGnah1HJgCWvuoMbeycdh6sQ1G89CtokBR7TIARb0CoeoznMTxYxe8Biw+Ghgm8Y2kFyagMEGK96bZp8ga6BiyOrIVC+BrNQCKRYeHZzG3T5A0cClgcU/Ged2ICPITKQDqadxTgCBTlTLCoanfewbQCLIyaApFNf/I8hgerKBqw+FJoGOXEBMA59wG0veC2afIG1uhZfAHnWFoCbjxKQts2t02TN7A1YPEnoeEBJyYAep9/h7a2bpsmb0BBzIl04V87MP6hyJW9BxrzQmpoLsCFgMUxAONPzsG0AhL2ib4nzxPsCBRReMgVe86BCXAD6oLZjgxM+h7sY0jA4j2hYZADEwD5qSEm3MsKcAiLAyZHxsa7HZgAr+ipku4FhTsFBSPD09DQwIEJ0Bl6vA7anuZ5Cg+WUS5gcizi3ceBCYAL/QPQ9qzblskrCJDIzYS/v+rABMDD4GXQ9grPQ3iwjgAh5Dj4+yL54290GJxe1G3D5BW8mWPyivD3M7zDyY+1qAkGof3jtmHyCpbnmDwE/h4jv27cnajJjdA41G3D5BUoqDnR9SKfLjwc+msI9MlhVutgeODE9wGjY2rQm7zjyQ2MQKkBbRvdtkuewbsBo7eDhuWcw8mP66C/z6HNiwdyCucDRv8JGv6QPgGQIOxnaAvneQYPNvCJ3i+ytezxJzzh4dAosjSuByPMCBi9JDS8LnsCkM88FtR72W275BncHDB6b2hoI3sCkF0gsh+zVkDyYBeJgVBczNQ8wDugvMDPfFKass1LC3IOgfpwGKT9lewJ8DN01w7aHnfbKnkI23OsjiFBkbInAGYj43zzzgKdQyAFCEtHDuUdUF5EQXdfQltXt62Sh/BGjtWXw98TLTAQ82AYqrEeGj932yp5CIVyrE7ycVPlToA62FsPZVvwVVwc+qpD4xyzE7ZgyRUD1mNvUKbuB3b1PdhFYPUVjMeBklmC9kNnGH7Q1G2j5CUoAsOxSM9qzhHlBJaF7A9th902Sl6C4reH9Xt2yZ0A66Czw9DW3m2j5CnE5dh9Dfy9K++QcoFsAjYp2yp60SBOIhD5gZ/lktyDyoPdqERZZdsCt02St/B0juHROz+Jd0y58Db05U9Vtp132yR5C4G3byf4+0WpEwDT//tC2yIe9T3YRYCXYQL83Z8mcwJgVUjIQ3qMR3sPthFgiSGuQJmlA4mrB4IPPHooZxE49huAdYVk8kS1Rh0+VLbVdtsieQwKRwCycsgMCmuMOiiTQmb141DegwAEWPrxEO48/7gyA52O1ZRNu3l09yAAj+r8Li9wDysz3kEN/lW2ledQ3YMIBI7iz8HfJYaERKAGymJRwX3dtkeeQ8APjy44fxz/yDICGSKhRt23bpsj7yFfjvHrYYO0ymFlEqGfKCU9VBu3zZH3EJSWbfxkPIX5nn9o2YAuR6wU4rkBncdyHeuXkjUBNmP/tyqavLRgF7Akx/z/wt93SIoLTcUvQDlltbhlPIp7EIOROebHbYCsGvKfYi8vK9uGuG2MvIh+adnmvxYblnKPLQtCyWf+I0WbVynIFdyQbf84fDnXjLUwvqaohJ3HNFe0nePQ2oMwBIrHYfFAXyUZE2AV9nGfss0jiXcFf+UMAKnZ/i/36JrjHtK5sjbJY35mnT0IRLnU7BGIx4bEKcLHP5j8yE8MUDR6ewCXENiJf4MNx4VPgA9J18qs0OB2zBp7EIrAq74DNhQuIHj86+JBsC+mpaLxJrftkGeRMit7DH4lLdcIngBHiXxYZXiFolxDoE7kL9jQT+wr4DTp1z9T0di8nNtmyLsIRP/QkEyhXEHDihDpnyhbPVoI9zAihxt6+klsidkrbvyn56P9KiMBCmxw2wp5GTnOwPRrSMtfwo6EQm6nvQIzkPcCcBNHc8YhgX6Jmwoa/9AGtNMg5Rago1cozk2czNkHpI8nTV0W8g+21u9/vKpTOGw67rYJ8jgCHtlxQaRps4jxT1UTP1VLVrRP8V4A7mJ2YCxU2bkCCgmP+0LVo7+78oLf3DZAXkdQoERIwRTSlrLW7vi/N0fdI7CCtHL7+T3UD4yGiq1/nb1DodRSGv19oYw6T7vN7cf3cEtgOAY0oo1DjtkY/+7VNLqrpdwBEL4ID64g4ArQeCG/nGp1+B+vrtVZTGnlNQmeDygX4DfFiKi3bLc05xz4LMzcqt2ZMhAwPXiuz4P7CFLs948tVjVX28g9+mGd+uuE+GC46es+D7kBTRRjcoOaqq3qG1yjP7DZoZN6PR0F9/LaRJ+H3IC+yiDg3zUu2PwY828//9g5+h1tg7KkYfe6/eAerkDp9Y+9TuOCfh1YCoqueGK2IcvHILz8brcf20M2opVv5nlamzdfSpthhoMfGh++L8mwk3IReMdpLxI49+A95cgs1/40l6u9IE3nq79x/WddzLro0gpvmplidocH5xANFZxX63H2zu8z9Q6cBCEfP/TKhfkMPfyUgOM/zCMEyVUoDqPzvcGVSe2+2tYmfP394eFLd85t1JBNfMzvA3D8Z73q9hN7AFSrC+NTSKz0GnXIRyO4s9sP7IHgfzhCxQSKDuoQRsf/kNuP64Gi3Ewco/VJ9mVm4fZf073xvwqwJYTs0sSc08zoke6N/9WBymSc4gXQNl2fXx1aHOqNf+5EUlkyUsml7AmM2axVgKyulweWW1FN5et7wEYhx4sdNA8Qpvzk9mN60MXLIXS4Why3lra3Yc17IVrDn753h9sP6cEAGjzhZ1dxS5k8uHVyujbe8Cjhczde0xi00b15Ivdr9C6dpjP66ame+ye3w79Ha+AKVv6G6e4uWyMqpOuj1TomKR7cRMwT2oNX7zuT+O0dR+7abphNeqyrVxbyakCMbvzXwju/fLWW1i039/nu1h/SjRHc+iKvJh7cQYxhyaAV37710SvHT5WsXr3PmjW/HX/tjVF7y6Sb45Hr3X4sD+w4PpBhSHnw5ilhBwsenMDmFiKH/+Od3vBfbXhKHD3MIw284b8KERQhhB9m1kGPA/hqRf9fbQ//9mvOuP0UHqyjYdfpdkZ/XLiX9nG1o+/6AdYGP/TbZdFuK+9BBIZ+n8Y9+sM6dbZxiOwhl+Fk75kcg7+idJtIz+H7X8M/9zOlhr7T6e5oL9nrP4pfBu1ONRj7ApVe62OaGubh6ob/i/G78rekq8Jj8R9W/mqE27p5cAxJF6OrHOm9rU2bNtt6d74ueo59iR48ePDgwYMHDx48ePDgwYMHDx48ePDgwYMHD47g/83o1wSOPa1CAAAAAElFTkSuQmCC;fontSize=16;" parent="Q7oySCktOlI4An6xobhd-27" vertex="1">
          <mxGeometry x="16.359999999999985" y="28.99727272727273" width="87.27272727272727" height="87.27272727272727" as="geometry" />
        </mxCell>
        <mxCell id="Q7oySCktOlI4An6xobhd-26" value="DataBase" style="text;html=1;align=center;verticalAlign=middle;whiteSpace=wrap;rounded=0;fontSize=16;" parent="Q7oySCktOlI4An6xobhd-27" vertex="1">
          <mxGeometry x="17.879999999999995" width="84.25" height="30" as="geometry" />
        </mxCell>
        <mxCell id="Q7oySCktOlI4An6xobhd-28" value="" style="shape=image;verticalLabelPosition=bottom;labelBackgroundColor=default;verticalAlign=top;aspect=fixed;imageAspect=0;image=data:image/png,iVBORw0KGgoAAAANSUhEUgAAAgAAAAEACAYAAADFkM5nAABKeElEQVR42u3deXxcVfk/8M9zZiZJaUspS0vbJG3ZpbQioZRZM7Sl2K+CoEZoyiKgCCjfn6iAKCrLVwUXXHEBEQXaokERQStQ6nQyM2kLQUGKQFnaJG0pe+mWZOae5/dH0pI9M/fcmTuTPu/XS1+vTO4995xLOve5Z3kOIIQQQgghhBBCCCGEEEIIIYQQQgghhBBCCCGEEEIIIYQQQgghhBBCCCGEEEIIIYQQQgghhBBCCCGEEEIIIYQQQgghhBBCCCGEEEIIIYQQQgghhBBCCCGEEEIIIYQQQgghhBBCCCGEEEIIIYQQQgghhBBCCCGEEEIIIYQQQhQRcrsCQgghBsZ18Gwsn/xB0nQ4QXmIeQsyWFvV0Lbb7bqJ0icBgBBCFJmX6w4bV1bW+VVmXABgUp9f7wL4rwT6ZtXStvVu11WULgkAhBCiiLQsrloA5rsATB7m0DSYbqha1vodAtjteovSIwGAEEIUiZb6qnMAvhuAL4fTllZtbruAYsi4XX9RWpTbFRBCCAFsrJ88H+B7kdvDHwDq2yZX3uZ2/UXpkQBACCFc1np+5RRALQHgsXM+A5dsrK+8xu12iNIiAYAQQrjNwq8JmGBSBAHfaV1UWet2U0TpkABACCFc1Lq48ixmfMSBohQT7nrjooPHut0mURokABBCCJcwQMy42cEip+9ur/iu2+0SpUFWAQghhEtaF1cuZMbfHS5WE+CvWtq21u32ieImPQBCCOESzfhCHopVDNzG18v3uxia/IEIIYQL2s6fchABH85T8Se2vFj5GbfbKIqbBABCCOECK415yON3MAHf3bxo8sFut1MULwkAhBDCFTQ/zxc40CL1bbdbKYqXBABCCOECIgTzfQ0GPtN6TuUct9sqipMEAEIIUWDrFx5RDuCoAlxKsaJfcJ29DINiZJMAQAghCsx30K4ZALyFuRqf0OqrusTtNoviIwGAEEIUGDHNLOwV+dsvnTfRKNWwGHkkABBCiAIjjQIHABhflvFJhkDRiwQAQghRaFToHgAAhAtb6qsibjddFA8JAIQQovCOc+GaxOCfyIRAsYcEAEIIUUDdyXkm2zi1vft/thFwfJu38nK374EoDrIZkBBCFFBb/ZRTNGhl7mdSktm6hUg9CLPv7m0Z9h192LJXt7p9L4azsb56vIeso5lpsgZ7FFGGQW0Vne3/ndDwxg6361fqCrQMRQghBABYoJn2nt7876nLNj+0sb5yKQGLDaowzkfp7wM43+170dfmRZMPThOdokDzNVBL0EdpJgIAAoEZABjtvvLOlkWVKQb/svroTffT9dBu170USQ+AEEIU0Mb6yjsIyHmjHmJ8tmpZ2282nDt1ktLW8wD2N6gGQ1Ft9b2tjW7ei9a6ylFcRmHWPI+I5gN8PHIcmmagiZXnE9Pu3bjFzbaUIgkAhBCigFrqK9cAOCnnEzXNrr6v9cmuMqZcCdCthlX5T9XmthMohkyh2s518LT5Kms08TzFNJ+BAIAKB4p+KZ0uO/Hwhle2FaotI4EMAQghRIHw9VCtL2KGjVMzZPG6PT9Ubd70s9ZJlReBjFYTzGydPOUKYNOP8tnmtrOnHKWVmg/iea3AKQDGExPY2csc4fOlbwZwWT7bMtJID4AQQhRI67mVR7DGehunrqte2tbrYd+6qLKWCf+E2ff4e1p5jnGy+/yVRdMn+lR6HmvMA2E+gGqnyh7GzlEV7ZMO+e2b2wt0vZInPQBCCFEoGrNsnvl03w+qlrWtcmBC4P5KWz+AQRmvnTdxdNry1TJoPsDzgPRMZpALr5ejd+4qmwkgVfArlygJAIQQonBsZQBkxn8G/Fx5riJtnQ6zCYGLWs+tvKPq3rZYVnWJwrvx0MkneUjNZ8K8Tgt+AD443alvg4fUJLfrUEokABBCiALRgK0lgIrwzECfT7t345aNi6d8i5hMxvGJNW578pKa40+8vTk90AEbF1cfC9bziXleK1FUAfu7/7jvT5OWSYA5kABACCEKhGz2ACit/zPY76o3bfp56+TKi2Cz7G7HHrJj65cA3AIALedUTWal5yvQfAbmgXVX5kIq7mljrHzrzEvZdxT3f00hhBghNl8yeb/MDvUekHMu/neql7YdONQBXZv8cAxm3+lMwD+ZeBKYPuDy7cod8X+rl2w61u1qlBLZC0AIIQrA2qGOQ+4PfwADd//3VL20Nc6EJYZVJAbmluTDHwBpusvtOpQaCQCEEKIAmMjumv1nszlId3qvArCvjoG/iwzudLsSpUYCACGEKARtdwUA/yeb46Y3bHiNgW+53UxXEP1fVUPb225Xo9RIACCEEAVAxLZyAHhU/xwAg6lOt/0cnP3xI8Tq10dP+KnblShFEgAIIUQBsL1Z+rwbo57L9mBqgMVQX0AxLMovjLczsM4ZbPmiGJoEAEIIkWev1k07FMAhNk7dcOSSl97L5YSpy1oSBNzrdpsLQBNj8WFLt2x0uyKlSgIAIYTIM+XVdtfoD7sCYCCZtPdqFOeEQAvAq84URddULWv7h9sNKmUSAAghRJ6Rsjf+D2Q3AbCvIpsQ+BwTfgbQmVaZ92AmPGxaIAO/qV7a+gO3G1bqJBOgEELkG+vj7OToGWwPgGxUb267rTtDoN0NiOxqA3gFgVZYyrOy506DLYuqFoHwBZPCCVj5+piJlwNtBW7WyCMBgBBC5BmBPmhnVp7Xw7Zn9FMMmY2L9eXEqhH5zfq6E6AmBq8A1IrqpS1P0QCTEFsWV80G828M6/Kyh/XZMunPGZIKWAgh8ujJS2p8E3ZsfQ9ARY6ntlel28ZQAyyT67fUV/0e4PMdbFIG4NUEWqFJr6jetHkNxZAZ6oQN502drixrDexNhNzjLQL8VUvb1jvYln2a9AAIIUQeHbL9tYtAlOvDHwA9Z/rwB4AMe6/2UvpjAMYZFPMcASs06xX7jeqMHfLbN7dne+Krn552gOrMPAyzh38nMT5RtUwe/k6SAEAIIRzWWl95JAhnMeMTAE6yV4q2tQKgr8OWvbp1Y33lNwn4SdYnEV5jYAXAK8hSj1Xf17rZzrWfvKTG59nx2h8BMtukh+nSqmWtq5y4H+J9EgAIIYQDNi6qngHSdQR8lIEa41Q8rGxPAOyrOt12W4uv8kICjh/kkF0ApfaO4y8ZeBw/VxN2vPYTgE41KYMIN1ctbZWNfvJAAgAhhLCB6+BpLa8KQOMsQJ8F6GmOlg9yLACgBlgbztGfJ6ViAHzoWo//BMCPAWrF9vT+q2c0rOt0sv4ti6u+DObLDIv5c+WRbV93sl7ifTIJUAghsrR+4RHlFQe2z9UaZ4HwMQIm5OtaVto7aXrDhtecLHPjouoQkBmfyVTED294JW+Jglrqqz4G8J9hlmum2TtGRybfvnlXvuq5r5MAQAghhtBaVzlKe/V8RaqOgTNgNpkuW29UL23LW3CRTxvOmfwhpVQjgNEGxWxWxHMql2ySxf55JEMAQgjRR2td5YHaxx9VUB9l8P8Q1OjC7q5DJbmjX8s5VZOh+K8we/jvBtGZlUva5OGfZxIACCEEgE3nTK7SpM7UhLMYiBDIw25tqsd41u37kavX6w4Z06H4YQYqDYrRAC2qXtL6hNvt2RdIACCE2GdtrK8+DNCnE6jOAgcAUDGMixJxSQUAfD1U64vl9wL4kGHDr65e0vqg2+3ZV0gAIITYp/Rcrgfomq5PXXrTHwQRr3O7DrlofbHqBwB/zKwUvqt6SdsP3W7LvkQCACHEiMYAtdZXhQn8CQbOBHS123Uaxjavyji2BDDfWhZPuRTMV5qUQcDKrWMO/Rywye3m7FOKobdLCCEct/n8ydVWWn2aCRcAOMzt+gyHgOeZ6QEPW7+cct/mVrfrk42W+qrTAH4YBi+TDLwAKP/UpS3vuN2efY0EAEKIEWXTOZOrtFLXMXAxAI/b9RnGcww0AOqhqUtbmt2uTC42nD3pA8rjSQE4wKCYtwk4WTb4cYcMAQghRoTX6w4Z0+6ruNECXw6g3O36DCJDQBzAA0rrB0vlTb+vVxZNn6io8+8we/h3AnRW1dJWefi7RAIAIUTJe3XR5GPaoRoAPs7tugygnYAVGnjIYt+Dhy17davbFTLx6qenVajO9AMATTMph4Erpi5tjbvdnn2ZBABCiJLWtnjKyZppBcySzzjtHSb8TTEe8IzR/xgp6WwZoNbO9O8A8puUQ4Sbq5e03e52e/Z1EgAIIUpWy9lVh2s2zjznlM0AP8jseeCNsYfETry9Oe12hZzWunjKTWA626QMBv5UJRv8FAUJAIQQpcuDXwE4xMUavErAQ5pVQ/XRLSm6Hrrr4xa374zjWuqrzgHz18xKoafKPZ0XvH+fhJtkFYAQoiS1Lqr8MBOWu3DpZjA9wKC/TF3WUlIJe+xqqa+KdG0djDKDYtqgaU71fa2b3W6P6CI9AEKIkqQVFlNhEvhZAK1m8EMK+PO+tmStO13y/TB7+O8C0cfl4V9cJAAQQpQkYszLY/HtAD0GxgNeWA9NXrb5Tbfb64bWusoDGXo5zIZZNBQtqr5XNvgpNhIACCFKDgPUChyah6ItMF1dkWm/fULDGzvcbqeb1tXNKGPvtj8BOMqoIKKrq+9t/avb7RH9KbcrIIQQuXpp4RFlyM8cJg+Iv9DuK/vfDedOneR2O9001vveLSBEzUrh31UvaZUNfoqUTAIURScQCExQumxWz88s6kg2NTXttltmKBSqGehzlVG70pTeYFL2HsFgcCxZvjm9PvRmmhOJhCM5zoPB4FjAcwoxTWPoiYrwJmu1gVVmRTKZ3J5tOXPmzJvoI2vm3nvAemN8TXzQce1wODyJ054ZPdr0SiKReCXb60X8kYBmtd9wx3kZz8fWxNqyLbelvnITgMlO3NtBZAA8TITbK49se2Rfm7m+sb4yRYDRen+P0sdMuXfzC263RQxMhgBE0VHk/TmUruv5mQ++WnSlUM1ZMBicDK2eHOh3WgEe+DpD/sjDmrxXp1IrX7Zdce39BpS+qtdnlroAwN0m9yPij8zUwPVg/A+ACoBBIDADIAaxZ0c4EL6sMdV4bzbl+TzpcwH8YG+1Qf8PwKABAFt0MZS+ac/PpD2XAMg2ACBNeASkxwx3YEbRGQCyDgAAPAHAcAvaIXkBnMmMM1tfrGxpXYQ74cOdVXe37RNb1hHodoCNAoCMppMASABQpGQIQBSVYDB6Ihif7Ps5gz9ot0yl1cxhDikD4eMKmSciJ0c+YK/ewclE/Pl+vyD79a6pqfEFA+GfasK/Qfg4gIpBDh0DqLHZlsug3ulyFT0zzAm97p8mynqr2lAoNL2rfsPzZrIvtwvdl9vxRqqZcANn0NJSX/XYxvopdRwd2S9QVenWewA8Z1IGgb7x5CU1PrfbIgYmAYAoKgTruxhgaEpDzbJRXPe5NFwAsMd4TfwLWxdh7w0A+ndzE2zVOxgMjh1VPvoRAl2BLP6dauKN2ZZN6P1A7+z0/GeYE3oer30+PJv1tXTW935bbHUs6zYAQNXm1vtR+Iw7CuD5BPpj6+TKltb6yps3nDd1eoHrUBDUAIuAbxgWc+QhO7Ze6HZbxMAkABBFIxSKRsE0f6DfKZMeAKDPBjF8K4CvArgeoN5bsBLVhsPhnCZ/hUKhowj86QF/yZRzvevq6jzE3qUATunzq+3E+D2BLmfCuQCuA+jprl9ZWT086+rqPAAf2+OjTWvXPv7WYMdHo9EK9JoFzq/GYrGsZ8dzv+CLl6Hr3vf5H10JIKdV/RRDhghfzPX+OmgSA9coy3ppT6/ASHvbrVra9mcAq03KIOBbmy+ZPOwcEFF4I7oLS5QUgtbf7/MZo7s3gIEZdXV1noaGBivXgrn3G6y1u2PXN5qbm3cBwIJZC36wa0z7ZgD776kHs+dwAFuyLl+r71Dvf0t76w3gkHA4PKmxsTHr8ra0bb0KhI/2uT33a6Q/n2pKvd7n8O+EArVX+Hy+rAKAtrY3jvQQRr1fLA/59m+1W8dCkef9T1RO3fQEHNfzqa6hfpRKrXJsPXjVkrYHWuqn/AEwy09vaE+vwPwJO7e+1lpf+XsNdfvUpS1ZT5QsZgz9DYJ6zKCIyZkdnsvRY96JKA7SAyCKQjAYqQNw4p6fGdgA4NEeh+y3efPmI3ItNxqNegH0fON9ec/DHwAefebRnQDe63mO1tyRbfmBQO1sAj7e46NtBCzteQxnPFn3AoTD4UNAuLbXh4w7E6lVn0ql+j38AYATqVU/zfat3AOe2afsocf/Ve8hDCLkFABw7/kDFnNn1sMH2Uqnyz9HwL+cLtcWxqEMXEPQ61vqK//RuqjyE6XeKzB16eYVBKw0vDFfXb/4iP3NyhBOkwBAuK6ryxs39PxMgW9g7js5LfsH6R66XR+JXpPnepcZ8UdmApjS85RMxpv1mxuBb0bvOQs/ZkZTr2OIs54HwBZdgvd7IwDGc++899blyLF7fNDyofsMh6hnhz6+94RBDc76AR6NRitAvZLIrHdiuWVfhze8ss2bzpwGwwlrDlMATmPC/RN2bm1pXVz53Zazqw53u1K2aXwNZn+DB5Wh/ctuN0P0JkMAI8CCWQtG79p/1zGw1NGk6BjWfDQUHwgAYDoAIAIAAr/F4K0AvcxEa9Np79qhxn8LZXPb1s8Q4Zg9PxPwkqfMc69O6wt6fuUQYxaAP+ZStuXBzF754pm3decE8BLTTM34Bno/wJPZ3pOwP3waA3N7fPQulP4JWXQC9yiSc1sJ0LM3AUR807p16zqdutekaGbvr3G+JRSIXD/EKRN6/uCxsu8B0B36A6Be3zFHhAKRtwc49BeJVPw6k3ZNanjtjZfrDguUlXUuYcZHnLpfjujqFfgqPHxNa33lSs18e/WyTQ3kUFBXCFX3ta1pqa98EMCZBvfhypfOm3jbEfdsfd12GcJREgCUKL8/eoRXWacz00d2oT0CrXwggJm7Hmfc85nGPf6/63NiRpk3bYUCkQRAf6zo8C1Z0bxiW+Hb4R9FhD5f/nxDLBbLhE8OP8+qZztyn1CnQMdxrygCF0Ori9+/H70vTMw3ZFk0MdF3+nz2w0Qi8Y7fP/d5DzI9S82q3gtmLRi9C+0f6vFRetSOUQ+Z3uPelcbMPu3OZcJju6pQWW+Eo/usNkDX9834fgdy1jkFhnR4wyvb+Hqc0fpC1RdBfCOA0Q7dNqcQAycQlKeUHv57MKvriPTpADx2zidgbFmm7FoAV7rdFtFFhgBKSDAYHBsK1F4eCkT+4yG9npluBTAPgN0xRg+AWoBvay/v3Bj2134nGo0eXMg2KeX9IoDKHh+96Cnz3AcAGcr8t/fRua8E6DMGPcyx/K3GpsbHszk25K89B8AJe34m4K201fFTAGhqWrkJQI9gio/unk0/pPZR7ZPRuzfite45Co5YMGvBaAYOMyjiuVgslsn24H75BgaRS16B4dD10NXLWm/NwJrBwBIAOU8azRcG/mSlvcdWL2td1vd3XaszilvX1se0xKgQ4ss2nz+52u22iC7SA1ACampq9htVPvoKYlzF4IPydJlxTHyt1cmXhPyRqxNN8buQ57eUUCg0Hpp6Z84jPJ3p5ItCgdruD7gd74/hV4VCofG5pdbVM7PIeN1C4GsSTY1ZJZapqanxEfGNvWe342mfp+KcHvXeAWBc9w9e3aE/gGEmqlleNY64V7ZZR1N17x69ewZAPYP+9wAMtcvdaAAT91aGc5sASErP7N0Thae6XoJ76+jYsc7JdgLAYUu3bARw7qZzJ99kWepqEBYDKHf6OlnaQoTPVy9pe6DvL6LRaEWmU1+3ZdPWCgBfcal+WbO051selTkH9rcGLs+k1bcAXOx2W4QEAEUvEojM1eDbARxeiD5DBg4C4c6QP/JJC+lzm5qa3jYvdZBrWZ5ribh3lzCjDuC6wc4hi2YBWJVN+dFodEymU/dM0rIFPdLyEuhtTXiivX1Horm5OZ1tvUeVj/ksg3utSCBgLsBzBzunex7AkAGAx6Pf0r3fr6cEAoEJg8z+z5lWNLPP4/d7iVT824MdHwrU/i/AP9l7PrJPANTd6J69L28kUvGanM53QHce+otfOm/itT7LdyEB/4v87h/QC4EayKsvq7x7U795JeGTw8FMp74DwAeYuSS6xafft2FDS33l7QC+YHBTLti4uPqHU5e0FNOkzX2SBABFan7N/HHt5R3f18Bn9kziKyjCQg/7noz4Ix+LN8Ud66LdIxgMTiYeIHXuMJjUB5FlAJBO4zjqNcxFqxKpVV81qfeCWQtG76L2b+TaN6J5+EyGSqlWDb0N7/ccELHncwBuGu7cbFCf4RAedkmfPq5nJ4QCZ/134Pf7D0SP1RWM3HoPnNY98eyW9QuP+HHZ+N1nE+hqADNMyx3Cq8zqc9XLWvqtn58zZ87+Pk/5Tdz1EO36+1RUMjkDfOnMjZ0+7wUEZJ1+ug8PWN8I9E/5LQpL5gAUoXA4fOzu8s5/A/RZuLljI2G6JsQCgdrZjhetPTdioNS5w+Hsl9Qp7r3mPdc17APZNab9SrCNfeizWAkQi8UyoF65D0BEXw/7w6cNdHwoFPpgyB/9cNa3rs+kPI9nuPvRO4ufVjrr++eFt/e9dzkA2OPI5S91TF266e6qpW0zGfpUAh6Gs0NdmoDbK9Ids6YO8PAPB8If8XnKn0VXT8Te71+Pxqtu35tsTWp47Q0C/cykDAI+3npO5RyTMoQ56QEoMqFQNMqW/jMNNFvaHQcq8IpQKDQ3kUg0mxcH+P3RY0D6gp6fEfHVrNWGvscy9DFEdOP7ByLriYAaeib1Wo5n9hA66aR5BwHpXuO0zPR96tqVrne9lT6ImH75frWz2xOAoW4l9NoJsZyJ/h7yR+4H8Agr7IRGlSKcyhqnArw42/r32QNgezwe3zD04b1SKL+ZTCY3Z32z+u6BwDgsFIhc06+9hLZkMm42scwGAhhLN68AsKJ1UeUsED7PwPkYfMOlbKwjjYur7mtb0/cXc+bMm+jzdH6fQecNdKIqVyUTAABAOu37ns/XeSmAA20WQaz4JgAL3G7Lvsy9t0vRTzAYWUyM38L+BJt82qLh9adSK3PasGUgIX/kT92723UhJBPJeGigYyORSJXO9NrwZfekKRPHZpMSOOQP/xNE0T0/a3inmdQ/FAj/EKAv7fmZgQ3vbnvr6IHW6dfV1Xm2bNq6Ez0mnlnsrexeITD0dYKRX4HxuWzqpBjBeFM8Ndxx0dnRQzM+vTcdMQFNjal4YNA6hEKHQaueWyP/M5GKz0WWQoHw7d09WEMj3J1Ixi/Iosi8e2XR9IkeSl9GwOcB5LIaJk3Are3vVHzryOUv9csiGfLX1qFrk6nBynw9kYpPRInZWF95DQE3m5ShmedNW7bJMMugsEuGAIpEyF97FjF+j+J8+APAJIXMQwtmLTBaWx0I1M4G4axeH5IaNAlMPB5vA9Azze2otrY3jszqYkQ9x3i3p1Irbe8c5/fPnQLQZT0/U+AbBkvS0x2g9BrXVcrKqhfA61NfBOgvWVXMh9ZsDkuX9R4O4WEy+jGrvkv4ctwDILslgMTk+AoAuw5b9urWqUvbru94p6KSwRcgi8yCBPxLaz2namnbV/s+/CORyPRwIPIIiP+IoQIKLp3u/55UGj8F0GZUBtHNLC+irpEAoAiE/eGTQHwvbCbYKKCZu8bsvsOkgL6pcxlYmUjEYkOcwgBe6vmBUnrYYYBgMDgZwCE9LvwMDMZ6FVn/B/TYRAdY7ynz3DtMa1/o9ZPOLo9BLBZrnzRlwie7Z4YPtQrj2YkTJ2bVLU/98iEMnQK47/EEymUFAHG/HRgHph2Yl+G0vfMEjhpynsBuBr5amW6bPe2+zX1Xd6hQoPYSncEznE0XN3HJTADsqaqhbTfQLxlWrma31led4XZb9lUyB8Blfn/0CCb9EOxMiHMFLQr5IysSTfHf5npmNBqtyHTwrwD8am9pHmvYeQWKcZFmtTf/Aavhs9Fprds98H5q7zlEWb0pD9ZoED8ETX/fWyfw88MlxbGYrvUw3bb3Z8r+bam7B+HH0Wj0V+m0nkuM2QAmALwDTC2srFgymcz67VmDVirG3vthwTP0sIHS/4DleXHPj54MNWZ7rZqaGi+0+ng2x/oqzLaazSe6Hhromiew4ZzJH/IodSWDFwCU1B7PV6bds7Hfm3vEH5mpgTsAznqCG6M0ewAA4PUxE34zYcfWLwOwv88B8//x9Xio636LQpKuFxd1J/hpBt7Pg18idinGyflYHihEKdqT0AfA1cgxMycRf7Yx2fibfNQrEIgen0rF/p3PtrcurqxnhtFETgafP3XppnvyWU/RnwwBuGi/stG3oPQe/gCwnyb8ac6cObK9p9jndSf0eQrA12EjLTdxfnIABALR4xT0ymg0ekDPzzedO/loJ7fmrTyy7T5gmG2lh7sHoOvX1c0o1vlPI5YEAC4JBmtPZULOiXCKyJE+VX6eeTFClK6Qv3YRK4oD+IDtQrzODwEEAnOnKuhHAIzPZHrPx9BaXV7O7W+1LKqMt9RXXdeyuGo2X2//WUDXQzNro90cARw2tuy94VeNCEdJAOCCUCg0npjvQukOwbQz49JEU/w286KEKGGEeph9j2aUUibzU/o56aR5Bylk/oHulMfMVq8AgEHPA/CCEAb4JjCvbX2x8vXW+qo/bqyvvMTOZj1Tl21+CFlm6BwMM3/zjYsOtptdUNggkwDdoNX16JEm1QEWgGaAn2ZW7xKxAqOKCScRMM3ZytMLUNbZyUTi6ULdLiGKFvNhhmF8Sy47LA7H7/eP8lD6r+gxtKg09U55rPDsANPtDmJwHQF1mYxCS33lKwSs0OAV+1V0/OOQ3765ffhboa4j0llPFu2LgAm7Osq/AOC7Tt0PMbRSfQMtWYHA3MMVMv+F/S18e3oXjFu85epXsVjs3YEOCIVCNdCerwB8Ngz/ezPoXl8ZXRaLxXaYlCPECEGhQGQHTFbwEK9IJBtPdaIyXcmnXr8f4DP7/GpVIhWP7vlhY331eILOZZOvdoASDF4BqBXVS1ueokGW1LYsrlwORtbpqQfwLqVxeFVDW942IRPvkx6AAlPIfAkOPPwJeDTD6UXD7dbXnb53Uejk6J1Q+g+wl7pzFxhXJJtW5bz0T4iRKhwOH8qW4fJd55IA0ZZNW28HcOYAv+uV02Hq0pZ3WhZVbgJl3QtZAfB8AuYDGi31la+3glZp8ArS9HD1fa17c1GQxjVMWAD7wyIHoAxXAbjWofsihiBzAApowawFo8EwTntKwJJdHTs/mstWvYnVsRVQ2g9g2DX0vTCeY7JOsrPuX4gRLY3DTItgciYACAUi3wVw0SC/PjAcDk/q9QnluLVzr1MxoXu44NdQvKmlvnJda33lzRvrJ89vf7fiBQAPGd0Txv9rPb/SySFSMQgJAApo1+j2j4FglEoXwOpdHTsvzGX/+j0SicSLyot5ILyW3Rl81+7OnbNzSTgjxD5DYbp5IeZLAEOB2ssBXDPUMVr3Se3MbDsAGMCxDFxDUI+VjW9/A8RHGZY3Chlc7WD9xCAkACggJlroQBlX23n47xGPx1uVxicAdAxx2A4Cn5dINV7U3Ny8y417JUTRI2XeA2CYAyAYjJwN8LBb8/ZLBU3KyQDg/WKBsWCyvyRyz30BPvvKouklt0FSqZEAoIAIXGtYxOZkclXCtB7xpniKiL8xSCWfYbJObEw13ptjsULsUzSb9wCUlZHtIYBQKBrt3kAsi+9x7r0SgFDsvXqjfCpdFLtEjmQSABRIKBQaD6DKsJiXYbChTU8en+dHAJ7q9SHh15ZOn5xMJl+wV6oQ+xI27QHYHovF3rRzYsQfmQmtH0CP7aaHQn0mApapzueA4s69z4xz3a7DSCerAAqELDqSzRddms4f2CsWi2XCJ4c/y4rWANjFhEuSyfgf3LxHWVKROZHD2cOzQKgGaDIzTwRRBTHGMbGCpt1MtBWsN0Nhi0fTMxU7K55+9JlHd7pd+UKrqanxVVRUHAV4ZijQEVrjYFJ8EBgHgbjr4aFpNxTawXiHGesV8XrS9OLEqokvdm9KJAZAMOwBsDkBMBQKHaYZj4JxQLbnMONYdL3waQA49J6tO1vqK1+FySY++XfcS+dNnHDEPVtfd7siI5XkASiQYDDyP8T4m2ExHRUdZRNXNK/Y5lS9woHayzJMjzU1xV4yL815fr9/lFJlIaVxCoijzJhlcyKlBeC/zLRcsX6wcXVjE4r8DciOaDRakWlHCMo6FVDzAJ4F+8tO3wbhcQYe0dr7j6amlZvcbl+xWLhwYfn2bTt3wagXlf6SSK06K5czwuHwIWxREsCRuV5Nw3tEKrXy5T0/t9RX/gXAxwp1z+zdIjqteknro25XY6SSHoACUcz7sXm8Vb67ouNyOJgpqzG16peu3pgBzJgxo+yAAw76MDGfA6YzwDx6b++J/VvoAXAcER/HRFeFgpHXwLiTPHxbY2PjFrfbbKKurs7zWttr80F0XqZTnwWF/bpulPFo0YFg1BFQ56GMDgciD2uinyeTq1Y4UXgeqVAoNBtancrAiQQ6AuAJyP77bjSAMgD/l0jFB5wrs3379qmAMhpC5RxzAESj0TGZTv132Hj4A4CH0zPRNYzYjdYBXNQBALM+1O06jGQSABQIs7JA5t+ZxHRdxB95eCRuxRudHT0049OfA+FSMA4FKH99VIxDAXydLboqGKj9I8Nzfc+3o1IQjUYPyHTqL2zZtPUyEE3O8+UUA2cQ8xmhQOR5JlxfbENG0Wj04HSHdQURXQSNSmDPn4/Nf3dDPaAt72Egww4kpbNeAVBTU+PLdOr7AZxo93JMNAPAX/b8TMTruJjDOACKTW+yGIoEAIXCtN2JAADAfhp48KST5s1eu/bxt9xulhPmzJk30evp/HoG+hIA5QV+tywj8LmETF0oEP5J2ur89po1a95z+54MpasbGF/JdOpLAbixJfMxxLgvFIh8jsm6wu08ETU1NfuNKh99ZaZTX01Ezt0Pjxr0AU3E003/TFX2PQC0X/nouxg4zeR6zNx3u92if4lgojfcrsNIJqsACoR81mbzUvYUhuk+b/qP0Wi0pAM4v98/KugP3+BT6ZcJdAWynNGcJ+UAXe3zlr8QDNYa52vIh5qaGl84GL6SLVoP0NVw5+Hf0ynEnn+Hg7U31tXVedyoQNgfPm1U+ej1AP7P+fuRGfwNnYxXAIB0djkAQoHI9xlYbHi5N3zac0fPD97rHPcCgGJ+iWAr7ZFNx/JIAoACGTNmzMsYOvlOTgiYm+60bnW7XXZFApG5Hir7FxF904HsiM5hHErMfwsFIr+uqakxy/PuoLA/XDuqfPQzzHQrgHFu16cHLzN/Y8umrX/z+/129pmwS4UCkeuZ6O/o3vbWYZ2TJk0adNIja+M0wLwzvXPjcAcF/ZGvAPiy4bW2QemFsTWxtp4fzmhY16mIjwfRV9C1lW9Rrfhg4OnpDRuyzFoq7JBVAAUU8kdWgzDHyTIJdHkxTuQbzIJZC0bvGtP+Uwyet7yYPJm2fB9ds+bxrW5VYMaMGWXjxx14E0BfQbEH7IxXSfOZjWsan8nnZfx+/ygPfH8CIW89NQS81JiKDzrZLhiIPEXAhwwusSWRig8ZuASDkcXEuAdm39M7NGhBKrWqabgDW+sqD9Q+nqdApzNwBlwONJn50qnLNv3azTqMdMX9hTLSEFY7XSSDfxby1+a0lMgtEX/kQ7vGdDSjNB7+AHCiz9OZ9PujR7hxcb8/esQB4w5a3d3dX/z/VgnT2UP/DASix+frEgsXLiz3kO+BfD78uw3ZPU8w7AGgocsPBCILiHEXzB7+7Qr4WDYPfwCoamh7e+rSTQ1VS9vO354eNwFEpwG4DUCLUVvtebXz3VG/c+G6+5Ti/1IZQZiwMg/FekC8JBSKhtxu31BC/to6TUgAfLTbdckNHe4hnfT7o8cU8qrBYO0pXtKrDd8y3XCggn4s4o/MNC+qt5qaGt9723b+AYaT4bLCgz+gu4c6jN6OmQdPARwMRk9UwJ9gtm14msCfjKfitr5zZjSs66xe0vpo9dK2L1QvbZvKrI5j4KsAJZH/JaAZJn3ekctfcmzIVAxMAoACam/fuTz7nfhyMgpaPxgOh491u40DCQUi14H4D4Dh3unumaBIL++3pWqehAK1lxDzIwwc5HbDbTpYE1Y4HTSNqhh9IxUqcQ0N/oBWqtx4AiB44CWAkTmRI4n13wCMMSjdAtPixlSjaeKxvaYua1k3dWnbLdVLW0PkRRWIL2Pg7wDanbrG3rqDPjt1yeakw+WKAUgAUEDNzc1p1nRPnoo/kC16NBKJOLBFqWMo6K+9FcBNKPH5JgRM0xb9LRqNmnwxDysUqP0SwL+G2dtfMZjgIf3XaDR6gBOFhU8OB8G4qnDVH3yNPmk2/jemBkgDHJ0dPVR78A8AEwyKZgJ/JtG0qiFfd6bq7rZN1Us2/Wrq0raPlHnSBxPwCYB/B8B0yd7bRKirXtr6u3zVXfQmAUCBadDtAGxv5zuMKTrDjwWDwXwnhckGhf2RXxDxlW5XxLEGAR9Kd/KP8lV+OFB7NcA/dLudDjoy08n3wPB7JhgMjmWie9CVzbEwNPK7BBC9lwDOmTNn/7RP/x2mcwsYVzSmGn9XmJvUtadA1dK2P1cv3XRhVbptErMKM+N7QE67DXYCdLdWnuOqlrQ9UKi6CwkACq6pKfYSg3+VvyvQ4cTeR6PR6MFutjMcjHyPCZe6WYd8IPBnwoHwJ50uNxSo/V8G3+J2+5zHHw35I5eZlEDs+TLIfOvdnGrt5aGS9BgHAMp6P8nQjBkzyso85Q3G8z0Y1yaa4rcV7i71Rg2wpi5rSUxd1nZN9dK24xRxFYPPJ+AnBKwE8BwDrxOwEcA6AjUQ43+ttHdq9dLWC6bdu7GkU3KXopLuli1VJ50076Ayb3o9gPF5vMyTaatjnhtZ7YL+yFeI8P1CX7eA3vCWqaNisdi7ThQW9ofPZKI/YeQG5Ns1vDNTqZXDrnvva37N/HHt5Z2tAMYWsL7vJFLxQXMahAKRRwGcalB+RyIV3w9dm1GpcCCylIGzDev87UQqfl0B75EYAUo6k1ypWrv28bfCgdprGHx7Hi9zos9T/nBNTc2Hm5ubdxWqbaFQ7enQeX+TfRvET5Gml5iwFcBudI2ZH0LAMQycjPxmyTvE6uCrAXzNtKBAoHY2g5cgvw//DEAvEPhlBl5jpm1ErEE4gBkHd2+WczSAijxdf6yC9WMAOS9X7SjvOB+gQj78AQyXopcPM3x32ojunShDgciPHHj4/0Qe/sIO6QFwUTgQudeBFJ/DeeSdbW+dsW7dus58tycyJ3Kk9mAtkP0+5dmjdQz9IEP9JZVa9SSGXoqkAoHosUTW6cR0GYCqPDR3F5N1ZDKZtJ3iORQKjYdW/wZQ7XTlGNigCPcTY3nFjoo1jz7z6M6hjl+4cGH5jnd3hJjoDADnw/n/hkzMJzc2Na7N6R7lIXnW8Oj+RGpV3UC/qaur82zZtHVPwGnXI4lU/MMhf+SrILOdPRn0m2Rq1SUo7t0ZRZGSAMBF0Wh0TKZDrwEhr8v3GPjT5CkTz25oaMhbqs+ujHUHrwX4gw4WqwH6o2L+jt3dD6PRqNfqtD7GTDfm4T7/MJGKf8XuycFA5P6uGdSOYYD+Bk0/SayOPQ6bD4XuzXWuAPB1ONj1TsCjjal41mv4u3eH3Azz7ylNwMMMPNG1vp+GnIRLrF9uXN341IB1Ojk6LaN0Ttv49se/JGAtg35r1jZeNmnKoefl89+1GNkkAHBZ91tzAmZLf4ZFjN83NsUvRJ7eFIKB8LcJZNwl3o0JWKrJuimZTL7gRIHRaLQik9bfAuMrcG7o682x40ZXLl++POeEJaFA7SXdy/2c0gilr0okEmucKtDvnzvFQ+n7AHIqyRRbrI5taoo9n83BwWDkDGI8aHjNteThCxsbG59zogHBYO0pxGya0GstgBNg8HdIwF93dez8ZHNzc75WFIl9wEiddFQy4mvi66H0/wDYns/rMOGCsD/y03yUHfaHTyLQNY4URniNwKc3puLnOvXwB4BYLNaeSMavVYxamK9X3uPg7e/u+niuJ0VnRw8F+HsO1WEHgS5PpOK1Tj78AaCpaeWm3R275hKwxKEiSYEvyfpgxizD661OWx2nOvXw72K+BBDASTALQh8bM270p+ThL0xJAFAEEolEM7T6OIC8jtMz4Qthf+13HC5WgejncGSNNv3F61Mzncxg1le8KZ5SFoJOZWQk4nNyPSft4+/DmY1WnrdYze7eDCovPTvNzc3pQ6dMvACMPztRHhEvRpbfOww63OBSlrJwvtOrYIgLuxxxgLuS2G9HxVl2ep2E6EsCgCKRWB1bQeAL0D07OF+Y+NpQIOLM2zqAcCB8PgOzHSjq9kRq1Sdisdib+Ww/0N3rQvrDYOw0LYuBU2pqarKeEBYJRCIEdmLi5z/TVsecbLvTTTQ0NFisrE8DWO9AcRPC/vCJ2RxIYJMAIB5fE3eivn040gNgEzVXdJR/dLgJnUJkSwKAItKYarwPoEJkzrs5FKi93LSQaDRawaBvm5bDTD9KpOKXIs/BT0+JROJpEBklqOk2dnT5aH+2B1tOpEVmLLc4/ZFC5nhIJpPbFePTcKCngYn+J8tDbT9smbkxLzeCya0A4NnOjPe0Fc0rtrl0fTECSQBQZBKpVT9lsNPd9APgnwWDkTNMSsh08kUATNMO355sWvUluLCMKZFadQ8A4+EGi7k2m+NCoWiUgIjh5dbu7tz5yaampt2FuEc9xZviKYD+4EBRJw93gN/vHwWDvy1F+G9ebkKBMxJ2W08eXrB27eNvuXBtMYJJAFCEkqnG68C4M8+XUcRYEp4TtjXRqqvbmw2HEqjZW6b+X57bOcxd0F8CYLSMikhltbyQtf6GYW23pC3fGYVM7NSvrR59E0yDNcKwS0W9Xu90GPSUWFAvO9327o2g8rpaZwBveC01t7GxUdLkCsdJAFCc2FuuLiXgr3m+zhjtoQfD4fAhuZ64X/l+Z8Asgc07yst1sVjM6e1Ec5JIJF4EyGznNOJhA4BwOHwsAXMNrqKh1flr1jy+tdD3qKfGxsbnCHjMqBDGocP9zTErk/F/lJWR4Vr9/nSHduPt/yCLrKkuXFfsAyQAKFKxWCyT4fQ5APIzltmNgGmcoZx7G5jwGZPrMuPaeDzu+Je0rboQzFIyM47CMG+rOqOM7hfAdyZWx1YU+t4M2BbC3aZlMPOQ3ftsaZMAYHs+JpOyA7sA2qCY6J45c+bkM7W12EdJAFDEmpqadkPpjwF4Nq8XIpweDEY+le3h0TnRSjAtMLjgC75yle8hjqwlk6tWEWAyvlqxYNaC/Qb75cKFC8uJ+DyD8t/pzJRd694d6sv6KwCjZWhaq4lDHkAmO+7RK/bPHaLObi0BJEz3ecp+7sq1xYgmAUCRSyQS71js/TCAlnxehxg/y3YLYctjnQWDvx2C/nosFsvksz050gCSJgV0lncOmjL3vfd2zgNgsj3zT4ppAlgymdwO8BMmZRANvROmMskBQJyXAMAsKDG++Hkhf6TeveuLkUgCgBLQ1LRyk8XqNAD5XCM/IdOZ7SQ1+qj9y9ALjalGR5LKOIuMAoBMeWbQLloCsl321h9jJ5TOSwZHM2b3SzEPOWTCBksAwZyXoSWCa0sA91TgF4HAXJkPIBwjAUCJaGqKPQ+lP+pE8pohXBIMBoccm/X7/aMYyGrZ28D4PhThzmUW+N8m5zN7Bx+jZSy0XTDxnxOJxDuu3ZjBqgXO57CUAgy62zk/QwBwPQsgxilk7qmrq3Mg66YQEgCUlEQisYYV1QHIVw7wCmLPkLnavew9AUC53QswWcvyeItsY/auMznfo3XZQJ8HAnMPh0lCG1L3uHxrBmS6zI5ZDTqHIBQKVcLkb0whHz0A5FIOgL7CWzZtLaL5IKKUSQBQYpLJVcsBuhj5e4u+CEPNaPfgJPtF09NObvDjpM7ObUZv2ezldwf6XLF1gkGxu/bff7+4m/dlMF49cHuzpYiHmNPgNepq11o53gMQDocPBTDKpAwG/gTgXQeq861QKDTH6TaKfY8EACUokVp1D5FpEp5BVQUCtYPmamfGh+wXzY7uVuek0d7RUwyLGDCAYNLH2y6ROFWsm76kyWuUhjgD9fZgv2M2WgKoy8uxwfkGm08AJEYjQF9yoDZeaFoSDAbHmhcl9mUSAJSoxmTj94nw43yUrcCDLvEj0BG2C2Y8k/87Y5MHVSanjxkzZsAHmgIdb7tQJqNhiXzSeqfR9tUejzV4DwAbrbffko/kUqyU+QRAD72SSK26C4zl5jWiw8HeIpwcKkqJBAAlrDEZ/zIBTuRm740xZ/Bf2X8TUoT/FOjW5EwzphmcvmuwN3U2KJdARTlcAgDjdo8zSZ9seTyeNwb7pdESQORpBYAD4/9ad2UnVD58DoDxRk4E/nQu+TuE6EsCgNKmPWXq0wz8y8lCifCBgT7v7nKcmGNxe7GH87A9q1ONhsmY6otDlGuQO17nNfeDie2jMwcYnL51qDwQDBjkAMjTCgBtnAWQx+woexUA4vF4K0BXOVEtYvwqFAqZpOQW+zAJAEpcLBZrZ3jPAvC2cWHdGKjCABMBiczWQZfvKndtE5ssZL2lbz+M5oE+jkajXgAH2S1Wk+p0+6YMhkiPt30yo3WYI+wHAIy8BABsngTo9UefeXTvEt5EatUdBDzqQNXGQ6t7ZWmgsEMCgBEglVq5kcAXwbmVAeV+v7/fF7zpBi07y3YW5QPtpJPmHQQgqx39BjFgD0xnZ+eBMNjRzsNstEthPnlZ289Nr7B5sF+FQqHxAEyCi3ztL2E6BNC3XuzR6nMAdjhQt/Dmza9dnad2ixFMAoARojHV+CDAv3GqPKVURb/PwEYBgMfjqTA5P198vs46ALbfoDTRU4O01+itjJmLdgMYJp5k+1xNG4b4tdmbtsf5JYALFy4sBzDZqBDq3zMRWx3bAMZXnagjMd0QCNTOdrrtYmSTAGAEIQ++BcCRbnbmcl+/D7VxKlR3U6kO2lhaZHD2jrIyGrAHQGtt++0fAKCKIvHMgDST7boRDb5Mj7T9cgHAspTjPQDvvffeNJh+Vw7SM5Foiv8SwCoHqulT4CXRaHSM0+0XI5cEACNIY2PjFgIecqIs5t39lnkxGYzNAmBW9pcQ5kk4HD6WgJD9RuHvgy0783X6tEnd2Gg2fH4ZzYofMlOf0XK79qamlVscb6v2mQdig89N0Brei+FM4H5kplP/xOn2i5FLAoACKsRGHgz6mwPF6PLy8v7LlBhGD3ClDR60ecIZ+hZMdjYkbhjsd2/seuNtmMzLYIq6eGuGqZv9AGDPcriBm2w0234DunZ2dJhRYqIuQwxNpFIrX2bmrztU2YuCwcjZzt8DMRJJAFAAkUikKhQI/1Yh83IgED0un9ci1k6sHW/ru0yrpqbGBzJLlsPEp+ez7bmK+CMzQfikQRG7Ru0YNWhSl3Xr1nUC2Ga/eJ5RtEu8DHoAysqGGAIwCCwI+VkB4MQeAFoPPTSRbGr8KchsS+q91WX8IjonWpmXeyFGFAkA8uikk+YdFApEfqAzeBGgCwF4FCwnUoEOyiKP8Ux7Bl7q+1lZ2dipALxmJdPUYpmoFI1GvRq4Ayb/Bgh/6bm0a0A8+Iz3rGhlMj8hXwiwneDojVgsNtTMd4ONk/K0AsB8F8DOKVMOahvmGM2wLgaw24EaH5jx6Lsh3+9iGPIHkgcLZi0YHQ7Wfq3Mm34ZwJcB9Jj9TosjkYjRm/RQiPgQ4zLAT/b9zAvLkfFoQt72MMiJleavGSb/AVn8wywOM90294oZM2aUGZbhqGAwOAm9/qazRxj87b+urs7DgP0ej3xtA2yeA2BjQ0PDsEs6k8nkC8z4pkO1PiUcqP1KXu6HGDEkAHBQTU2NLxgMX7prTPt6Zv42gHEDHFbGFvLXC6C18Tg7E/XviiQHcqEDIODjEX9kZt7an4WwP3waM19nVAhjeePqxqeGP4xNA4ApBxxw4EWFvD/DUZay/UbMQ6zT37TprUoA9oOdIs0BQMi+XpMrJ/4IDEc2zWLwTaFQqCZP90SMABIAOIOCwcinRpWPXkdMvwQw5BppZnwuGAyarSseQF1dnYdA5xkW0wFY/+xXZ2inZvATE+6sqanxmReVu2AweiIT3Q/A6Pqs6LtZNRaeJ0zrTEw3uzWm6/f7D4xGowf0+tBkeaIafJxeKW3W1e6xHO8B6E4SNc6okByyEzY0NFgW1KcBOLGhURlpdZ/sGigGIwGAodDJ0fmhQO0TxPgDgCOzPG0UsbrZ6bps2fT6xQ5MWFqRTCYH2OnNmR4AAGBg9qjy0U51dWYtEKidTaz/DsBsrTTximRyVWM2h+7u3B6H+Zf5OMuj7+xOLVwwc+bMm+ihspVlb5ele36uTcbEefAVALC00d9YOp12vAfA57PMlwAS5VSvpqbY80x8oxP1Z+AIYpXNUJXYB0kAYFMwGD0xFAw/BqUfA9hGNxudFwrVOjYrPhQKHQXwD0zLIfC9A//GLAvgAK4N+SP1Dpc5qJC/9iwFjgEwnSPRAeLPZ3twc3PzLjiQ6IWBBZlO63YYpBbORTAYPNrnSccBPrTvREejHAB6iHF6s7H2N9esWWO8w94AFTYOfNnG0ITP5/k+QM25njcw+mzIX3uW8/dGlDoJAHIUmRM5MuSP/IFYrwXTfKPCNN/t90eNu9ajJ0enQavHAJh29b3+9ra3/zzA5wR2PIufB4S7Q/7I+Q6X28uMGTPKwv7a74D4fgD7OVDkzYlE4sVcTmBCQy7HD44uDAUiP893T0AwGDmD2LMGwFEDLq0zyQGghlgOZxBY5DLOnlO52oG/extDE7FYLKOYLwTgyP4ZRHxHPoYdRWmTACAHkUBkrvZgHQifgjNvYgd4yPpHIDDX9tt1MFh7akbpNTCZPf2+X3SvXe8lOjs6EYTRDpTflweEu0KB8C3d+dYdFQhEjx9/wEFPMPG1cOZvfb23LPehG59P/QHA9lzPG8TlmQ7rsUAgYLDN8MD8fv+BoUDkTmL8Be+Pe/d/eNl/UGc6OrYNvsWxWZBZtDkALMuyFZzEm+L/IaJvO9EMBg4iqN9DvvNFD/LHkIMOq+NJsDMR+fvocIVMMhKIzM3lrFAoND7or72VmP8BmOw5v9c2b5kaMI2o5XFmCeAgFEBXb39v59pQKGS0LG+P6JxoZTBQe4eCfgKMWQ7Vs5NJnT9Y2t+hdK175/scu2NEUQXvf8LB8GfgwL/haDQ6JhwMX+kh3/MALkKP4Jb7vFl3Td4kWxMSGWhrbm5OD3GI/dUF+coBYJaZEADebWpqsr1V9672Hd8F8G9H2sI0P+iP5DUPiSgtEgDkYM2aNe+B+I95KHqiBlYEA7X3DLdELnpydFrQH/4GtHqJiK+EQ/8NCfSdWCz27kC/YypATnrGLGi1OhSIrAwGaxfaaVcwGD0xGKi9K+PR6wn8GRgnLupVvy8lk7HVdk/X8N0CIG33/AFMYKY7QoFIc8gfOT8ajea8Lj8UCn0wFIjcbHXqDcx0KwacH9F7zL68fFw17O+cOOhb+oJZC0bDIJClfOUAME8CZFSv5ubmtGJcBIf+dojw7Yg/8iGnbo8obQWdVTwSaKg7FPjCPBRNBD5XE84NBSJPAbyGCc8Rq04mXaY0zQChJgN9IoGcngj27K6OHT8a7JcMPpwKM/cMAE4h5lNCgchWAH9jwkqPxjM7O3c+3+ftkQKBuYd5kD4eRCFmPh3sQM72ARCwpLEpfptJGanUypdDgfDvAPqsw9U7HoTfZzr1D8P+yN+Y6HGmzFqfz7exZ2+F3+8f5fV6p8PCLAaFAZoHzUcDw2xWoHrPYFdaT7cbctIQk+F2jOmcrgyG1VjnNtM+G9Fo1Jvp1EZDa+zA3IR4U/xfoUDkFgBmuSu6lGnCkpqamhO7J6iKfZgEADlKpVY1hQK1zfZm/mftBIBOIAYABjGB8/f8ZSh12ZBds6QOM9nTxqaJAC4ixkWagFHloxEKRN5D11j6fgDGAxkwqLtq+bpB9PSujh2XOFGS1/LcmPHoswHsn4eKHsyECwC+gNiDTKdGKBB5p8fvx3OvXHTZ/vfM9HqDJcXT7f4lkBr8LZ1IH2b0J+bNON8D0I5KKLN8EU5lJ3xn21s3jR930JkAnNhL5AP7lY3+IYDLnKibKF0yBGDPSNpy845EIpYY6gACF8s2vvsDmAJgfCEuRsBL5NELnXpTiq2JtTEVNBXy+B7/s6Nz0qRJm3p9YtAlznqIt2FtNNae2b17d6vB+QOyyHzui3JobsK6des6FeN8ODQUwIRLw4Hwx5woS5QuCQBsGDtuvz+C8Jrb9XDAvy1OfzGL44p2X/o8avNodWpjY6Oj+8snk42/BnPM7cZlqV8OezaYFc9q8G56IjJILoTWYSYX2mOS8XBv3bRjPRPxpvi/QHAsqQ+DfhMOhyeZlyRKlQQANixfvrwDnF0q2CL2rob3k01NTUPuPtadRtR4g6ES84bSWBBbHduQh7LZm/EsArDJuKR8I355gOrbflNXynp58N+S/R4Ays8SQKOMh3uqpp2dnDh2/9HXA7TOoeIOZot+jwIllxLFRwIAm97Z9uav8rj5SL5ZYH1eKrXy5eEOZPbta2//LeThaHx1/L/5ukDsidhrGlQHoMPtxg5p4L/vaTZL29HY2PjGEL+337MA5ycAAgCZp7/Wow8c3WJYRi/Lly/vYKLPABh2d8EsnRoOhr/oZB1F6ZAAwKZ169Z1sqKsU8IWEQuM8xNNiYezOZjIPBVq6aB1yotQY2Pjc/m+Uiq1qglMF8K5L3Ln70af8WvDpXpDPaQJYNsBgFPj7P0Z5wBoW758ueNBXvdy1B871kqm7wYC0eOdrqcofhIAGEgmVy1n0O/crkcONEAXJpriS7M9gRzoBi0JjIe8ZRSKx+OOTyYbTKJp1bLufAXa7eYPck96dV/vGNOZl1S94XD4UBikaR5ycqEZ07/9vPUQWpz+BoCcUlIPoVyB7/X7/aPyVV9RnCQAMDR6R/kXQHjG7XpkoR1M5yZSq+7J8byR3gNgAbgh0RQ/c7BESPnUmGr8HYEvQBEOB/RNrqOU/bf0ocbpLUtNM6nnUJML7XJm7gvnJzkRgKampt0a9Gk41oPEM7zwfS9f9RXFSQIAQ48+8+hO5cGZALa6XZchtEDpUKJp1bKczxzZPQAvkubaRCp+PVx8C29MNd7LRKcS8JbbN6QnVd5n4x5tME4/xDbAig0CCwCZjMfxAEBllPHfvZ1dAHORSq1qAmCUoKpXfQmfDwfCH8lnnUVxkQDAAfF4/FWlcUpRLg0kXkEePjGRSNjbWpRsz87OEPOHCXjJ7VswgDQRfmBx+vjG1Y1JtysDAMnkqkZW+gQA/3S7Lt3e7t8joqfaLo0H3xGPFE0zqOeuNWsef93pxmuvUZ0A5HNuwvv221HxNTi3ERIx6LfR2dFD811vURwkAHBIfHX8vyqDCBh5n0CWpdfBuCCRbFwwzOzroSiAbX7p88bGpsZHPGVqJoAbUCxd3MQrNNQJjcn4VcMtgSy0RCLRkkjF5wP0ZTi3e6Bd/R4qDLIdALDiQR+GzHqa/WrSq8hDmkrFdv/u32dBDbvKxtSjzzy6E0pd7OA9mJDx6d9BlgbuEyQAcFB8TXw9K+tkgHPvandOJ4BfQOljEk3xu2HwxRCdE50MIOdNZgAA3W8/sVisPZGKX6+hTgToYZP6GNAgPKBBgUSy8dRUKvasC3XIuq6J1KpbvWl1FIN+A3dWCXQAdEffDwmw+1Dk9vb2wd+GzbbczdMugGS8vXZZOj/LE/tKJGIxgH/lYJGnhQK1VxSi7sJdEgA4LJlMbk+kGuuZ8BGA8/4G0MM2ALcwWdMTqfjnE4nEO6YFao/BEsA+E8hSqdizidSq06H0bID+gkI82AivMdOPLFZHJ5Lxj3ePmZaE2BOx15KpVZ9VXhwJ4KcAduT9ooxXiejrGpnqRGrV7QMcYfeh+NpQ6ZSJ7Xe3M3ReHrJsP9jZY1fsiVjB5gUx6WuczUvCt4RCoQ8Wqv7CHbIZUJ4kk/G/R6PRRzMduh6Eq+DMJh59ZUAcY033Z3THsjVr1rznZOEWYTrZf18fcFyyey7CWX7/3CkeypwL0HkAz3CqzgxsIOBRsHpg0pRDHuubyrbUxOPxVwH8v2g0+nWr0zqTmepBOAV2e2b637DnQPwPJk9DMhVbg8F7aBQIv+3afSlXNHQyHKJlYC6zVX9SjzhyH/reFo3HySDDIBG/hQL2diWTye2RSGSetnAJGAc6UqhWZwF4ulBtEIUn4zwFEghEj1ewFgE0F8DxsBl8EfASE9YysDKd9v1l7drH8zZzPOgP30BE37R1MtOnEk2rGrI5NDonWpn26nlgihL4OABHAxibxalb0bUW+l8E/hdZlIyvia/P1/0oFn6/f5QX3oAGIkRqFsCz0PXG6hnitAzAmxj0siI8BeZmTTqeTCY3u90eIYQ7JABwwYJZC0bvHr37RCicAFA1GJOYUAmmHm913AFGG4M2EXgjK6z3+dTaWCz2ZqHqGQqE7+56Q7dBafsrDwAEg8HJHu05SHvUOFgYA0YGALTibUpZb40dO3ZTPrKslTCaM2fehHKVnqA9ukxrj1LKUkS0nYi2K6W2xGKxjNuVFEIUDwkAxKBCwUgCjKCdc71larwbiXWEEEJkRyYBisGx7SyAb8vDXwghipsEAGJA3XnB7SYEyVsKVCGEEM6QAEAMyOv1TofdIaICZEATQghhRgIAMSDOGGyFytIDIIQQxU4CADEw8tgOAPK9CYoQQghzEgCIARHZ36GNZQhACCGKngQAYkDaYBtgryUBgBBCFDsJAMSACLaXAOrRB45usXmuEEKIApEAQAzGbg+AZOgTQogSIAGA6CcQCEwAMMbOuZyv7VmFEEI4SgIA0Y9Syvb4PxE2uF1/IYQQw5MAQPRn2V8CKDkAhBCiNEgAIPphpafZP1mGAIQQohRIACD6IaZpds9lRRIACCFECZAAQPRDwDS75/oyEgAIIUQpkABA9MP2lwB2xtbENrtdfyGEEMOTAED0pQBU2zuV1gPQbjdACCHE8LxuV0AUl7q6Otq8eWs9afLkch4rLmOmp92uvxBCCCGEEEIIIYQQQgghhBBCCCGEEEIIIYQQQgghhBBCCCGEEEIIIYQQQgghhBBCCCGEEEIIIYQQQgghhBBCCCGEEEIIIYQQQgghhBBCCCGEEEIIIYQQQgghhBBCCCGEEEIIIYQQQgghhBBCCCGEEEIIIYQQQgghhBBCCCGEEEIIIYQQQgghhBBCCCGEEEIIIYQQQgghhBBCCCGEEEIIIYQQQgghhBBCCCGEEEIIIYQQQgghhBBCCCGEEEIIIYQQQgghhBBCCCGEEEIIIYQQQgghhBCl6f8DW+wQkuUTHdsAAAAASUVORK5CYII=;fontSize=16;" parent="1" vertex="1">
          <mxGeometry x="200" y="290" width="160" height="80" as="geometry" />
        </mxCell>
        <mxCell id="LlSDbdedQlE04od_okPb-24" value="Big Data" style="text;html=1;align=center;verticalAlign=middle;whiteSpace=wrap;rounded=0;fontSize=16;" parent="1" vertex="1">
          <mxGeometry x="243" y="260" width="70" height="30" as="geometry" />
        </mxCell>
        <mxCell id="LlSDbdedQlE04od_okPb-6" value="" style="sketch=0;points=[[0,0,0],[0.25,0,0],[0.5,0,0],[0.75,0,0],[1,0,0],[0,1,0],[0.25,1,0],[0.5,1,0],[0.75,1,0],[1,1,0],[0,0.25,0],[0,0.5,0],[0,0.75,0],[1,0.25,0],[1,0.5,0],[1,0.75,0]];outlineConnect=0;fontColor=#232F3E;fillColor=#01A88D;strokeColor=#ffffff;dashed=0;verticalLabelPosition=bottom;verticalAlign=top;align=center;html=1;fontSize=16;fontStyle=0;aspect=fixed;shape=mxgraph.aws4.resourceIcon;resIcon=mxgraph.aws4.augmented_ai;" parent="1" vertex="1">
          <mxGeometry x="377.5" y="287.5" width="85" height="85" as="geometry" />
        </mxCell>
        <mxCell id="Q7oySCktOlI4An6xobhd-29" value="AI Application" style="text;html=1;align=center;verticalAlign=middle;whiteSpace=wrap;rounded=0;fontSize=16;" parent="1" vertex="1">
          <mxGeometry x="366.62" y="260" width="106.75" height="30" as="geometry" />
        </mxCell>
        <mxCell id="OuYwRzyxVTaI1I2WvI3m-9" value="Data analysis" style="text;html=1;align=center;verticalAlign=middle;whiteSpace=wrap;rounded=0;fontSize=16;" parent="1" vertex="1">
          <mxGeometry x="510.38" y="263" width="107" height="24" as="geometry" />
        </mxCell>
        <mxCell id="Aw0q3EOBRqiptCxBz17g-10" value="Hot LRU" style="rounded=0;whiteSpace=wrap;html=1;fillColor=#f8cecc;gradientColor=#ea6b66;strokeColor=#b85450;gradientDirection=west;fontSize=16;" vertex="1" parent="1">
          <mxGeometry x="218.75" y="510" width="390" height="40" as="geometry" />
        </mxCell>
        <mxCell id="Aw0q3EOBRqiptCxBz17g-11" value="Warm LRU" style="rounded=0;whiteSpace=wrap;html=1;fillColor=#fcfcfc;gradientColor=#ffa500;strokeColor=#d79b00;gradientDirection=west;fontSize=16;" vertex="1" parent="1">
          <mxGeometry x="218.75" y="560" width="390" height="40" as="geometry" />
        </mxCell>
        <mxCell id="Aw0q3EOBRqiptCxBz17g-12" value="Cold LRU" style="rounded=0;whiteSpace=wrap;html=1;fillColor=#dae8fc;gradientColor=#7ea6e0;strokeColor=#6c8ebf;gradientDirection=west;fontSize=16;" vertex="1" parent="1">
          <mxGeometry x="218" y="610" width="390" height="40" as="geometry" />
        </mxCell>
        <mxCell id="Aw0q3EOBRqiptCxBz17g-13" value="" style="endArrow=classic;html=1;rounded=0;exitX=0.25;exitY=1;exitDx=0;exitDy=0;entryX=0;entryY=0.5;entryDx=0;entryDy=0;startArrow=classic;startFill=1;" edge="1" parent="1" target="Aw0q3EOBRqiptCxBz17g-10">
          <mxGeometry width="50" height="50" relative="1" as="geometry">
            <mxPoint x="120.75" y="470" as="sourcePoint" />
            <mxPoint x="218.75" y="520" as="targetPoint" />
            <Array as="points">
              <mxPoint x="120" y="530" />
            </Array>
          </mxGeometry>
        </mxCell>
        <mxCell id="Aw0q3EOBRqiptCxBz17g-14" value="" style="endArrow=classic;html=1;rounded=0;exitX=0.5;exitY=1;exitDx=0;exitDy=0;entryX=0;entryY=0.5;entryDx=0;entryDy=0;startArrow=classic;startFill=1;" edge="1" parent="1" source="Q7oySCktOlI4An6xobhd-3" target="Aw0q3EOBRqiptCxBz17g-12">
          <mxGeometry width="50" height="50" relative="1" as="geometry">
            <mxPoint x="360" y="560" as="sourcePoint" />
            <mxPoint x="410" y="510" as="targetPoint" />
            <Array as="points">
              <mxPoint x="280" y="490" />
              <mxPoint x="140" y="490" />
              <mxPoint x="140" y="630" />
            </Array>
          </mxGeometry>
        </mxCell>
        <mxCell id="Aw0q3EOBRqiptCxBz17g-15" value="" style="endArrow=classic;html=1;rounded=0;exitX=0.5;exitY=1;exitDx=0;exitDy=0;entryX=0;entryY=0.75;entryDx=0;entryDy=0;" edge="1" parent="1" source="Q7oySCktOlI4An6xobhd-6" target="Aw0q3EOBRqiptCxBz17g-11">
          <mxGeometry width="50" height="50" relative="1" as="geometry">
            <mxPoint x="360" y="560" as="sourcePoint" />
            <mxPoint x="410" y="510" as="targetPoint" />
            <Array as="points">
              <mxPoint x="381" y="480" />
              <mxPoint x="170" y="480" />
              <mxPoint x="170" y="590" />
            </Array>
          </mxGeometry>
        </mxCell>
        <mxCell id="Aw0q3EOBRqiptCxBz17g-16" value="" style="endArrow=classic;html=1;rounded=0;exitX=0.5;exitY=1;exitDx=0;exitDy=0;entryX=0;entryY=0.25;entryDx=0;entryDy=0;startArrow=classic;startFill=1;" edge="1" parent="1" source="Q7oySCktOlI4An6xobhd-5" target="Aw0q3EOBRqiptCxBz17g-10">
          <mxGeometry width="50" height="50" relative="1" as="geometry">
            <mxPoint x="360" y="560" as="sourcePoint" />
            <mxPoint x="410" y="510" as="targetPoint" />
            <Array as="points">
              <mxPoint x="550" y="500" />
              <mxPoint x="190" y="500" />
              <mxPoint x="190" y="520" />
            </Array>
          </mxGeometry>
        </mxCell>
        <mxCell id="Aw0q3EOBRqiptCxBz17g-17" value="" style="endArrow=classic;html=1;rounded=0;exitX=0.5;exitY=1;exitDx=0;exitDy=0;entryX=0.5;entryY=0;entryDx=0;entryDy=0;startArrow=classic;startFill=1;" edge="1" parent="1" source="Q7oySCktOlI4An6xobhd-17" target="Q7oySCktOlI4An6xobhd-4">
          <mxGeometry width="50" height="50" relative="1" as="geometry">
            <mxPoint x="370" y="480" as="sourcePoint" />
            <mxPoint x="420" y="430" as="targetPoint" />
          </mxGeometry>
        </mxCell>
        <mxCell id="Aw0q3EOBRqiptCxBz17g-18" value="" style="endArrow=classic;html=1;rounded=0;exitX=0.624;exitY=1.007;exitDx=0;exitDy=0;exitPerimeter=0;entryX=0.5;entryY=0;entryDx=0;entryDy=0;startArrow=none;startFill=0;" edge="1" parent="1" source="Q7oySCktOlI4An6xobhd-17" target="Q7oySCktOlI4An6xobhd-6">
          <mxGeometry width="50" height="50" relative="1" as="geometry">
            <mxPoint x="370" y="560" as="sourcePoint" />
            <mxPoint x="420" y="510" as="targetPoint" />
          </mxGeometry>
        </mxCell>
        <mxCell id="Aw0q3EOBRqiptCxBz17g-19" value="" style="endArrow=none;html=1;rounded=0;exitX=0.5;exitY=1;exitDx=0;exitDy=0;entryX=0;entryY=0.25;entryDx=0;entryDy=0;startArrow=classic;startFill=1;endFill=0;" edge="1" parent="1" source="Q7oySCktOlI4An6xobhd-7" target="Aw0q3EOBRqiptCxBz17g-11">
          <mxGeometry width="50" height="50" relative="1" as="geometry">
            <mxPoint x="391" y="476" as="sourcePoint" />
            <mxPoint x="218.75" y="566" as="targetPoint" />
            <Array as="points">
              <mxPoint x="450" y="506" />
              <mxPoint x="180" y="506" />
              <mxPoint x="180" y="570" />
            </Array>
          </mxGeometry>
        </mxCell>
        <mxCell id="Aw0q3EOBRqiptCxBz17g-20" value="" style="endArrow=classic;html=1;rounded=0;exitX=0.5;exitY=0;exitDx=0;exitDy=0;entryX=0.25;entryY=1;entryDx=0;entryDy=0;startArrow=none;startFill=0;" edge="1" parent="1" source="Q7oySCktOlI4An6xobhd-7" target="Q7oySCktOlI4An6xobhd-22">
          <mxGeometry width="50" height="50" relative="1" as="geometry">
            <mxPoint x="166" y="391" as="sourcePoint" />
            <mxPoint x="391" y="440" as="targetPoint" />
          </mxGeometry>
        </mxCell>
        <mxCell id="Aw0q3EOBRqiptCxBz17g-21" value="" style="endArrow=classic;html=1;rounded=0;exitX=0.75;exitY=1;exitDx=0;exitDy=0;entryX=0.5;entryY=0;entryDx=0;entryDy=0;startArrow=none;startFill=0;" edge="1" parent="1" source="Q7oySCktOlI4An6xobhd-22" target="Q7oySCktOlI4An6xobhd-6">
          <mxGeometry width="50" height="50" relative="1" as="geometry">
            <mxPoint x="166" y="391" as="sourcePoint" />
            <mxPoint x="391" y="440" as="targetPoint" />
          </mxGeometry>
        </mxCell>
        <mxCell id="Aw0q3EOBRqiptCxBz17g-22" value="" style="endArrow=classic;html=1;rounded=0;exitX=0.75;exitY=1;exitDx=0;exitDy=0;entryX=0.5;entryY=0;entryDx=0;entryDy=0;startArrow=none;startFill=0;" edge="1" parent="1" source="Q7oySCktOlI4An6xobhd-23" target="Q7oySCktOlI4An6xobhd-6">
          <mxGeometry width="50" height="50" relative="1" as="geometry">
            <mxPoint x="318" y="390" as="sourcePoint" />
            <mxPoint x="391" y="440" as="targetPoint" />
          </mxGeometry>
        </mxCell>
        <mxCell id="Aw0q3EOBRqiptCxBz17g-23" value="" style="endArrow=classic;html=1;rounded=0;exitX=0.5;exitY=0;exitDx=0;exitDy=0;entryX=0.25;entryY=1;entryDx=0;entryDy=0;startArrow=none;startFill=0;" edge="1" parent="1" source="Q7oySCktOlI4An6xobhd-7" target="Q7oySCktOlI4An6xobhd-23">
          <mxGeometry width="50" height="50" relative="1" as="geometry">
            <mxPoint x="446" y="440" as="sourcePoint" />
            <mxPoint x="258" y="390" as="targetPoint" />
          </mxGeometry>
        </mxCell>
        <mxCell id="Aw0q3EOBRqiptCxBz17g-24" value="" style="endArrow=classic;html=1;rounded=0;exitX=0.5;exitY=0;exitDx=0;exitDy=0;entryX=0.5;entryY=1;entryDx=0;entryDy=0;startArrow=none;startFill=0;" edge="1" parent="1" source="Q7oySCktOlI4An6xobhd-7" target="Q7oySCktOlI4An6xobhd-24">
          <mxGeometry width="50" height="50" relative="1" as="geometry">
            <mxPoint x="461" y="440" as="sourcePoint" />
            <mxPoint x="400" y="390" as="targetPoint" />
          </mxGeometry>
        </mxCell>
        <mxCell id="Aw0q3EOBRqiptCxBz17g-25" value="" style="endArrow=classic;html=1;rounded=0;exitX=0.5;exitY=1;exitDx=0;exitDy=0;entryX=0.5;entryY=0;entryDx=0;entryDy=0;startArrow=classic;startFill=1;" edge="1" parent="1" source="Q7oySCktOlI4An6xobhd-22" target="Q7oySCktOlI4An6xobhd-3">
          <mxGeometry width="50" height="50" relative="1" as="geometry">
            <mxPoint x="151" y="390" as="sourcePoint" />
            <mxPoint x="161" y="440" as="targetPoint" />
          </mxGeometry>
        </mxCell>
        <mxCell id="Aw0q3EOBRqiptCxBz17g-26" value="" style="endArrow=classic;html=1;rounded=0;exitX=0.5;exitY=1;exitDx=0;exitDy=0;entryX=0.5;entryY=0;entryDx=0;entryDy=0;startArrow=classic;startFill=1;" edge="1" parent="1" source="Q7oySCktOlI4An6xobhd-23" target="Q7oySCktOlI4An6xobhd-5">
          <mxGeometry width="50" height="50" relative="1" as="geometry">
            <mxPoint x="288" y="390" as="sourcePoint" />
            <mxPoint x="290" y="440" as="targetPoint" />
          </mxGeometry>
        </mxCell>
        <mxCell id="Aw0q3EOBRqiptCxBz17g-27" value="" style="shape=flexArrow;endArrow=classic;html=1;rounded=0;exitX=0.5;exitY=0;exitDx=0;exitDy=0;" edge="1" parent="1" source="Q7oySCktOlI4An6xobhd-26">
          <mxGeometry width="50" height="50" relative="1" as="geometry">
            <mxPoint x="150" y="250" as="sourcePoint" />
            <mxPoint x="240" y="260" as="targetPoint" />
            <Array as="points">
              <mxPoint x="140" y="220" />
              <mxPoint x="210" y="220" />
              <mxPoint x="240" y="220" />
            </Array>
          </mxGeometry>
        </mxCell>
        <mxCell id="Aw0q3EOBRqiptCxBz17g-28" value="" style="shape=flexArrow;endArrow=classic;html=1;rounded=0;exitX=0.5;exitY=0;exitDx=0;exitDy=0;" edge="1" parent="1">
          <mxGeometry width="50" height="50" relative="1" as="geometry">
            <mxPoint x="301.75" y="260" as="sourcePoint" />
            <mxPoint x="400.75" y="260" as="targetPoint" />
            <Array as="points">
              <mxPoint x="300.75" y="220" />
              <mxPoint x="370.75" y="220" />
              <mxPoint x="400.75" y="220" />
            </Array>
          </mxGeometry>
        </mxCell>
        <mxCell id="Aw0q3EOBRqiptCxBz17g-29" value="" style="shape=flexArrow;endArrow=classic;html=1;rounded=0;exitX=0.5;exitY=0;exitDx=0;exitDy=0;" edge="1" parent="1">
          <mxGeometry width="50" height="50" relative="1" as="geometry">
            <mxPoint x="441" y="260" as="sourcePoint" />
            <mxPoint x="540" y="260" as="targetPoint" />
            <Array as="points">
              <mxPoint x="440" y="220" />
              <mxPoint x="510" y="220" />
              <mxPoint x="540" y="220" />
            </Array>
          </mxGeometry>
        </mxCell>
      </root>
    </mxGraphModel>
  </diagram>
</mxfile>
